<?xml version="1.0" encoding="UTF-8"?>
<!DOCTYPE xmeml>
<xmeml version="5">
<sequence id="VFX20210121-2 ">
	<uuid>9E3F3F6C-2D5E-47BC-B2C3-BEB327E35528</uuid>
	<updatebehavior>add</updatebehavior>
	<name>VFX20210121-2</name>
	<duration>4709</duration>
	<rate>
		<ntsc>FALSE</ntsc>
		<timebase>25</timebase>
	</rate>
	<timecode>
		<rate>
			<ntsc>FALSE</ntsc>
			<timebase>25</timebase>
		</rate>
		<string>00:00:00:00</string>
		<frame>0</frame>
		<source>source</source>
		<displayformat>NDF</displayformat>
	</timecode>
	<in>-1</in>
	<out>-1</out>
	<media>
		<video>
			<format>
				<samplecharacteristics>
					<width>1920</width>
					<height>1080</height>
					<anamorphic>FALSE</anamorphic>
					<pixelaspectratio>Square</pixelaspectratio>
					<fielddominance>none</fielddominance>
					<rate>
						<ntsc>FALSE</ntsc>
						<timebase>25</timebase>
					</rate>
					<colordepth>24</colordepth>
					<codec>
						<name>Apple ProRes 422 (Proxy)</name>
						<appspecificdata>
							<appname>Final Cut Pro</appname>
							<appmanufacturer>Apple Inc.</appmanufacturer>
							<appversion>7.0</appversion>
							<data>
								<qtcodec>
									<codecname>Apple ProRes 422 (Proxy)</codecname>
									<codectypename>Apple ProRes 422 (Proxy)</codectypename>
									<codectypecode>apco</codectypecode>
									<codecvendorcode>appl</codecvendorcode>
									<spatialquality>1024</spatialquality>
									<temporalquality>0</temporalquality>
									<keyframerate>0</keyframerate>
									<datarate>0</datarate>
								</qtcodec>
							</data>
						</appspecificdata>
					</codec>
				</samplecharacteristics>
				<appspecificdata>
					<appname>Final Cut Pro</appname>
					<appmanufacturer>Apple Inc.</appmanufacturer>
					<appversion>7.0</appversion>
					<data>
						<fcpimageprocessing>
							<useyuv>TRUE</useyuv>
							<usesuperwhite>FALSE</usesuperwhite>
							<rendermode>YUV8BPP</rendermode>
						</fcpimageprocessing>
					</data>
				</appspecificdata>
			</format>
			<track>
				<clipitem id="CSF_0004_v002 ">
					<name>CSF_0004_v002</name>
					<duration>78</duration>
					<rate>
						<ntsc>FALSE</ntsc>
						<timebase>25</timebase>
					</rate>
					<in>0</in>
					<out>78</out>
					<start>0</start>
					<end>78</end>
					<pixelaspectratio>Square</pixelaspectratio>
					<anamorphic>FALSE</anamorphic>
					<alphatype>none</alphatype>
					<masterclipid>CSF_0004_v002 1</masterclipid>
					<logginginfo>
						<scene/>
						<shottake/>
						<lognote/>
						<good>FALSE</good>
					</logginginfo>
					<labels>
						<label>B Roll</label>
						<label2/>
					</labels>
					<comments>
						<mastercomment1/>
						<mastercomment2/>
						<mastercomment3/>
						<mastercomment4/>
					</comments>
					<file id="CSF_0004_v002 2">
						<name>CSF_0004_v002.mov</name>
						<pathurl>file://localhost/Volumes/DeBao_EDIT_01/08_From%20CG/20210121-2/CSF_0004_v002.mov</pathurl>
						<rate>
							<timebase>25</timebase>
						</rate>
						<duration>78</duration>
						<metadata>
							<storage>QuickTime</storage>
							<key>uk.co.thefoundry.Writer</key>
							<size>5</size>
							<type>UTF8</type>
							<value>mov64</value>
						</metadata>
						<metadata>
							<storage>QuickTime</storage>
							<key>uk.co.thefoundry.Application</key>
							<size>4</size>
							<type>UTF8</type>
							<value>Nuke</value>
						</metadata>
						<metadata>
							<storage>QuickTime</storage>
							<key>uk.co.thefoundry.ApplicationVersion</key>
							<size>6</size>
							<type>UTF8</type>
							<value>11.3v4</value>
						</metadata>
						<metadata>
							<storage>QuickTime</storage>
							<key>uk.co.thefoundry.YCbCrMatrix</key>
							<size>7</size>
							<type>UTF8</type>
							<value>Rec 709</value>
						</metadata>
						<metadata>
							<storage>QuickTime</storage>
							<key>uk.co.thefoundry.Colorspace</key>
							<size>4</size>
							<type>UTF8</type>
							<value>sRGB</value>
						</metadata>
						<media>
							<video>
								<duration>78</duration>
								<samplecharacteristics>
									<width>1920</width>
									<height>1080</height>
								</samplecharacteristics>
							</video>
						</media>
					</file>
					<sourcetrack>
						<mediatype>video</mediatype>
					</sourcetrack>
					<fielddominance>none</fielddominance>
					<itemhistory>
						<uuid>5412F0A9-961C-47FD-9765-414553B0455D</uuid>
					</itemhistory>
				</clipitem>
				<clipitem id="CSF_0007_v001 ">
					<name>CSF_0007_v001</name>
					<duration>151</duration>
					<rate>
						<ntsc>FALSE</ntsc>
						<timebase>25</timebase>
					</rate>
					<in>0</in>
					<out>151</out>
					<start>78</start>
					<end>229</end>
					<pixelaspectratio>Square</pixelaspectratio>
					<anamorphic>FALSE</anamorphic>
					<alphatype>none</alphatype>
					<masterclipid>CSF_0007_v001 1</masterclipid>
					<logginginfo>
						<scene/>
						<shottake/>
						<lognote/>
						<good>FALSE</good>
					</logginginfo>
					<labels>
						<label>B Roll</label>
						<label2/>
					</labels>
					<comments>
						<mastercomment1/>
						<mastercomment2/>
						<mastercomment3/>
						<mastercomment4/>
					</comments>
					<file id="CSF_0007_v001 2">
						<name>CSF_0007_v001.mov</name>
						<pathurl>file://localhost/Volumes/DeBao_EDIT_01/08_From%20CG/20210121-2/CSF_0007_v001.mov</pathurl>
						<rate>
							<timebase>25</timebase>
						</rate>
						<duration>151</duration>
						<metadata>
							<storage>QuickTime</storage>
							<key>uk.co.thefoundry.Writer</key>
							<size>5</size>
							<type>UTF8</type>
							<value>mov64</value>
						</metadata>
						<metadata>
							<storage>QuickTime</storage>
							<key>uk.co.thefoundry.Application</key>
							<size>4</size>
							<type>UTF8</type>
							<value>Nuke</value>
						</metadata>
						<metadata>
							<storage>QuickTime</storage>
							<key>uk.co.thefoundry.ApplicationVersion</key>
							<size>6</size>
							<type>UTF8</type>
							<value>11.1v1</value>
						</metadata>
						<metadata>
							<storage>QuickTime</storage>
							<key>uk.co.thefoundry.YCbCrMatrix</key>
							<size>7</size>
							<type>UTF8</type>
							<value>Rec 709</value>
						</metadata>
						<metadata>
							<storage>QuickTime</storage>
							<key>uk.co.thefoundry.Colorspace</key>
							<size>4</size>
							<type>UTF8</type>
							<value>sRGB</value>
						</metadata>
						<media>
							<video>
								<duration>151</duration>
								<samplecharacteristics>
									<width>1920</width>
									<height>1080</height>
								</samplecharacteristics>
							</video>
						</media>
					</file>
					<sourcetrack>
						<mediatype>video</mediatype>
					</sourcetrack>
					<fielddominance>none</fielddominance>
					<itemhistory>
						<uuid>1916A873-BA4B-4023-867D-9813297CB73A</uuid>
					</itemhistory>
				</clipitem>
				<clipitem id="CSF_0010_v003 ">
					<name>CSF_0010_v003</name>
					<duration>109</duration>
					<rate>
						<ntsc>FALSE</ntsc>
						<timebase>25</timebase>
					</rate>
					<in>0</in>
					<out>109</out>
					<start>229</start>
					<end>338</end>
					<pixelaspectratio>Square</pixelaspectratio>
					<anamorphic>FALSE</anamorphic>
					<alphatype>none</alphatype>
					<masterclipid>CSF_0010_v003 1</masterclipid>
					<logginginfo>
						<scene/>
						<shottake/>
						<lognote/>
						<good>FALSE</good>
					</logginginfo>
					<labels>
						<label>B Roll</label>
						<label2/>
					</labels>
					<comments>
						<mastercomment1/>
						<mastercomment2/>
						<mastercomment3/>
						<mastercomment4/>
					</comments>
					<file id="CSF_0010_v003 2">
						<name>CSF_0010_v003.mov</name>
						<pathurl>file://localhost/Volumes/DeBao_EDIT_01/08_From%20CG/20210121-2/CSF_0010_v003.mov</pathurl>
						<rate>
							<timebase>25</timebase>
						</rate>
						<duration>109</duration>
						<metadata>
							<storage>QuickTime</storage>
							<key>uk.co.thefoundry.Writer</key>
							<size>5</size>
							<type>UTF8</type>
							<value>mov64</value>
						</metadata>
						<metadata>
							<storage>QuickTime</storage>
							<key>uk.co.thefoundry.Application</key>
							<size>4</size>
							<type>UTF8</type>
							<value>Nuke</value>
						</metadata>
						<metadata>
							<storage>QuickTime</storage>
							<key>uk.co.thefoundry.ApplicationVersion</key>
							<size>6</size>
							<type>UTF8</type>
							<value>11.2v3</value>
						</metadata>
						<metadata>
							<storage>QuickTime</storage>
							<key>uk.co.thefoundry.YCbCrMatrix</key>
							<size>7</size>
							<type>UTF8</type>
							<value>Rec 709</value>
						</metadata>
						<metadata>
							<storage>QuickTime</storage>
							<key>uk.co.thefoundry.Colorspace</key>
							<size>4</size>
							<type>UTF8</type>
							<value>sRGB</value>
						</metadata>
						<media>
							<video>
								<duration>109</duration>
								<samplecharacteristics>
									<width>1920</width>
									<height>1080</height>
								</samplecharacteristics>
							</video>
						</media>
					</file>
					<sourcetrack>
						<mediatype>video</mediatype>
					</sourcetrack>
					<fielddominance>none</fielddominance>
					<itemhistory>
						<uuid>77C8056F-ED60-4C24-9644-FCA0F6C38BC3</uuid>
					</itemhistory>
				</clipitem>
				<clipitem id="CSF_0020_v003 ">
					<name>CSF_0020_v003</name>
					<duration>103</duration>
					<rate>
						<ntsc>FALSE</ntsc>
						<timebase>25</timebase>
					</rate>
					<in>0</in>
					<out>103</out>
					<start>338</start>
					<end>441</end>
					<pixelaspectratio>Square</pixelaspectratio>
					<anamorphic>FALSE</anamorphic>
					<alphatype>none</alphatype>
					<masterclipid>CSF_0020_v003 1</masterclipid>
					<logginginfo>
						<scene/>
						<shottake/>
						<lognote/>
						<good>FALSE</good>
					</logginginfo>
					<labels>
						<label>B Roll</label>
						<label2/>
					</labels>
					<comments>
						<mastercomment1/>
						<mastercomment2/>
						<mastercomment3/>
						<mastercomment4/>
					</comments>
					<file id="CSF_0020_v003 2">
						<name>CSF_0020_v003.mov</name>
						<pathurl>file://localhost/Volumes/DeBao_EDIT_01/08_From%20CG/20210121-2/CSF_0020_v003.mov</pathurl>
						<rate>
							<timebase>25</timebase>
						</rate>
						<duration>103</duration>
						<metadata>
							<storage>QuickTime</storage>
							<key>uk.co.thefoundry.Writer</key>
							<size>5</size>
							<type>UTF8</type>
							<value>mov64</value>
						</metadata>
						<metadata>
							<storage>QuickTime</storage>
							<key>uk.co.thefoundry.Application</key>
							<size>4</size>
							<type>UTF8</type>
							<value>Nuke</value>
						</metadata>
						<metadata>
							<storage>QuickTime</storage>
							<key>uk.co.thefoundry.ApplicationVersion</key>
							<size>6</size>
							<type>UTF8</type>
							<value>11.2v3</value>
						</metadata>
						<metadata>
							<storage>QuickTime</storage>
							<key>uk.co.thefoundry.YCbCrMatrix</key>
							<size>7</size>
							<type>UTF8</type>
							<value>Rec 709</value>
						</metadata>
						<metadata>
							<storage>QuickTime</storage>
							<key>uk.co.thefoundry.Colorspace</key>
							<size>4</size>
							<type>UTF8</type>
							<value>sRGB</value>
						</metadata>
						<media>
							<video>
								<duration>103</duration>
								<samplecharacteristics>
									<width>1920</width>
									<height>1080</height>
								</samplecharacteristics>
							</video>
						</media>
					</file>
					<sourcetrack>
						<mediatype>video</mediatype>
					</sourcetrack>
					<fielddominance>none</fielddominance>
					<itemhistory>
						<uuid>626771E6-275F-44E7-9CB7-066D41C74B7D</uuid>
					</itemhistory>
				</clipitem>
				<clipitem id="CSF_0030_v003 ">
					<name>CSF_0030_v003</name>
					<duration>66</duration>
					<rate>
						<ntsc>FALSE</ntsc>
						<timebase>25</timebase>
					</rate>
					<in>0</in>
					<out>66</out>
					<start>441</start>
					<end>507</end>
					<pixelaspectratio>Square</pixelaspectratio>
					<anamorphic>FALSE</anamorphic>
					<alphatype>none</alphatype>
					<masterclipid>CSF_0030_v003 1</masterclipid>
					<logginginfo>
						<scene/>
						<shottake/>
						<lognote/>
						<good>FALSE</good>
					</logginginfo>
					<labels>
						<label>B Roll</label>
						<label2/>
					</labels>
					<comments>
						<mastercomment1/>
						<mastercomment2/>
						<mastercomment3/>
						<mastercomment4/>
					</comments>
					<file id="CSF_0030_v003 2">
						<name>CSF_0030_v003.mov</name>
						<pathurl>file://localhost/Volumes/DeBao_EDIT_01/08_From%20CG/20210121-2/CSF_0030_v003.mov</pathurl>
						<rate>
							<timebase>25</timebase>
						</rate>
						<duration>66</duration>
						<metadata>
							<storage>QuickTime</storage>
							<key>uk.co.thefoundry.Writer</key>
							<size>5</size>
							<type>UTF8</type>
							<value>mov64</value>
						</metadata>
						<metadata>
							<storage>QuickTime</storage>
							<key>uk.co.thefoundry.Application</key>
							<size>4</size>
							<type>UTF8</type>
							<value>Nuke</value>
						</metadata>
						<metadata>
							<storage>QuickTime</storage>
							<key>uk.co.thefoundry.ApplicationVersion</key>
							<size>6</size>
							<type>UTF8</type>
							<value>11.2v3</value>
						</metadata>
						<metadata>
							<storage>QuickTime</storage>
							<key>uk.co.thefoundry.YCbCrMatrix</key>
							<size>7</size>
							<type>UTF8</type>
							<value>Rec 709</value>
						</metadata>
						<metadata>
							<storage>QuickTime</storage>
							<key>uk.co.thefoundry.Colorspace</key>
							<size>4</size>
							<type>UTF8</type>
							<value>sRGB</value>
						</metadata>
						<media>
							<video>
								<duration>66</duration>
								<samplecharacteristics>
									<width>1920</width>
									<height>1080</height>
								</samplecharacteristics>
							</video>
						</media>
					</file>
					<sourcetrack>
						<mediatype>video</mediatype>
					</sourcetrack>
					<fielddominance>none</fielddominance>
					<itemhistory>
						<uuid>C12D6A52-EAF9-4576-A6CB-2CBA5297F34B</uuid>
					</itemhistory>
				</clipitem>
				<clipitem id="CSF_0070_v002 ">
					<name>CSF_0070_v002</name>
					<duration>18</duration>
					<rate>
						<ntsc>FALSE</ntsc>
						<timebase>25</timebase>
					</rate>
					<in>0</in>
					<out>18</out>
					<start>507</start>
					<end>525</end>
					<pixelaspectratio>Square</pixelaspectratio>
					<anamorphic>FALSE</anamorphic>
					<alphatype>none</alphatype>
					<masterclipid>CSF_0070_v002 1</masterclipid>
					<logginginfo>
						<scene/>
						<shottake/>
						<lognote/>
						<good>FALSE</good>
					</logginginfo>
					<labels>
						<label>B Roll</label>
						<label2/>
					</labels>
					<comments>
						<mastercomment1/>
						<mastercomment2/>
						<mastercomment3/>
						<mastercomment4/>
					</comments>
					<file id="CSF_0070_v002 2">
						<name>CSF_0070_v002.mov</name>
						<pathurl>file://localhost/Volumes/DeBao_EDIT_01/08_From%20CG/20210121-2/CSF_0070_v002.mov</pathurl>
						<rate>
							<timebase>25</timebase>
						</rate>
						<duration>18</duration>
						<metadata>
							<storage>QuickTime</storage>
							<key>uk.co.thefoundry.Writer</key>
							<size>5</size>
							<type>UTF8</type>
							<value>mov64</value>
						</metadata>
						<metadata>
							<storage>QuickTime</storage>
							<key>uk.co.thefoundry.Application</key>
							<size>4</size>
							<type>UTF8</type>
							<value>Nuke</value>
						</metadata>
						<metadata>
							<storage>QuickTime</storage>
							<key>uk.co.thefoundry.ApplicationVersion</key>
							<size>6</size>
							<type>UTF8</type>
							<value>11.2v3</value>
						</metadata>
						<metadata>
							<storage>QuickTime</storage>
							<key>uk.co.thefoundry.YCbCrMatrix</key>
							<size>7</size>
							<type>UTF8</type>
							<value>Rec 709</value>
						</metadata>
						<metadata>
							<storage>QuickTime</storage>
							<key>uk.co.thefoundry.Colorspace</key>
							<size>4</size>
							<type>UTF8</type>
							<value>sRGB</value>
						</metadata>
						<media>
							<video>
								<duration>18</duration>
								<samplecharacteristics>
									<width>1920</width>
									<height>1080</height>
								</samplecharacteristics>
							</video>
						</media>
					</file>
					<sourcetrack>
						<mediatype>video</mediatype>
					</sourcetrack>
					<fielddominance>none</fielddominance>
					<itemhistory>
						<uuid>186BE136-DBF6-4DCC-B339-75F94DE697AE</uuid>
					</itemhistory>
				</clipitem>
				<clipitem id="CSF_0080_v003 ">
					<name>CSF_0080_v003</name>
					<duration>19</duration>
					<rate>
						<ntsc>FALSE</ntsc>
						<timebase>25</timebase>
					</rate>
					<in>0</in>
					<out>19</out>
					<start>525</start>
					<end>544</end>
					<pixelaspectratio>Square</pixelaspectratio>
					<anamorphic>FALSE</anamorphic>
					<alphatype>none</alphatype>
					<masterclipid>CSF_0080_v003 1</masterclipid>
					<logginginfo>
						<scene/>
						<shottake/>
						<lognote/>
						<good>FALSE</good>
					</logginginfo>
					<labels>
						<label>B Roll</label>
						<label2/>
					</labels>
					<comments>
						<mastercomment1/>
						<mastercomment2/>
						<mastercomment3/>
						<mastercomment4/>
					</comments>
					<file id="CSF_0080_v003 2">
						<name>CSF_0080_v003.mov</name>
						<pathurl>file://localhost/Volumes/DeBao_EDIT_01/08_From%20CG/20210121-2/CSF_0080_v003.mov</pathurl>
						<rate>
							<timebase>25</timebase>
						</rate>
						<duration>19</duration>
						<metadata>
							<storage>QuickTime</storage>
							<key>uk.co.thefoundry.Writer</key>
							<size>5</size>
							<type>UTF8</type>
							<value>mov64</value>
						</metadata>
						<metadata>
							<storage>QuickTime</storage>
							<key>uk.co.thefoundry.Application</key>
							<size>4</size>
							<type>UTF8</type>
							<value>Nuke</value>
						</metadata>
						<metadata>
							<storage>QuickTime</storage>
							<key>uk.co.thefoundry.ApplicationVersion</key>
							<size>6</size>
							<type>UTF8</type>
							<value>11.2v3</value>
						</metadata>
						<metadata>
							<storage>QuickTime</storage>
							<key>uk.co.thefoundry.YCbCrMatrix</key>
							<size>7</size>
							<type>UTF8</type>
							<value>Rec 709</value>
						</metadata>
						<metadata>
							<storage>QuickTime</storage>
							<key>uk.co.thefoundry.Colorspace</key>
							<size>4</size>
							<type>UTF8</type>
							<value>sRGB</value>
						</metadata>
						<media>
							<video>
								<duration>19</duration>
								<samplecharacteristics>
									<width>1920</width>
									<height>1080</height>
								</samplecharacteristics>
							</video>
						</media>
					</file>
					<sourcetrack>
						<mediatype>video</mediatype>
					</sourcetrack>
					<fielddominance>none</fielddominance>
					<itemhistory>
						<uuid>A423FC62-3FF8-4359-A9BE-206D401D81DD</uuid>
					</itemhistory>
				</clipitem>
				<clipitem id="CSF_0170_v002 ">
					<name>CSF_0170_v002</name>
					<duration>93</duration>
					<rate>
						<ntsc>FALSE</ntsc>
						<timebase>25</timebase>
					</rate>
					<in>0</in>
					<out>93</out>
					<start>544</start>
					<end>637</end>
					<pixelaspectratio>Square</pixelaspectratio>
					<anamorphic>FALSE</anamorphic>
					<alphatype>none</alphatype>
					<masterclipid>CSF_0170_v002 1</masterclipid>
					<logginginfo>
						<scene/>
						<shottake/>
						<lognote/>
						<good>FALSE</good>
					</logginginfo>
					<labels>
						<label>B Roll</label>
						<label2/>
					</labels>
					<comments>
						<mastercomment1/>
						<mastercomment2/>
						<mastercomment3/>
						<mastercomment4/>
					</comments>
					<file id="CSF_0170_v002 2">
						<name>CSF_0170_v002.mov</name>
						<pathurl>file://localhost/Volumes/DeBao_EDIT_01/08_From%20CG/20210121-2/CSF_0170_v002.mov</pathurl>
						<rate>
							<timebase>25</timebase>
						</rate>
						<duration>93</duration>
						<metadata>
							<storage>QuickTime</storage>
							<key>uk.co.thefoundry.Writer</key>
							<size>5</size>
							<type>UTF8</type>
							<value>mov64</value>
						</metadata>
						<metadata>
							<storage>QuickTime</storage>
							<key>uk.co.thefoundry.Application</key>
							<size>4</size>
							<type>UTF8</type>
							<value>Nuke</value>
						</metadata>
						<metadata>
							<storage>QuickTime</storage>
							<key>uk.co.thefoundry.ApplicationVersion</key>
							<size>6</size>
							<type>UTF8</type>
							<value>11.2v3</value>
						</metadata>
						<metadata>
							<storage>QuickTime</storage>
							<key>uk.co.thefoundry.YCbCrMatrix</key>
							<size>7</size>
							<type>UTF8</type>
							<value>Rec 709</value>
						</metadata>
						<metadata>
							<storage>QuickTime</storage>
							<key>uk.co.thefoundry.Colorspace</key>
							<size>4</size>
							<type>UTF8</type>
							<value>sRGB</value>
						</metadata>
						<media>
							<video>
								<duration>93</duration>
								<samplecharacteristics>
									<width>1920</width>
									<height>1080</height>
								</samplecharacteristics>
							</video>
						</media>
					</file>
					<sourcetrack>
						<mediatype>video</mediatype>
					</sourcetrack>
					<fielddominance>none</fielddominance>
					<itemhistory>
						<uuid>8D23F04E-3E43-409A-9B32-044A471FCEC3</uuid>
					</itemhistory>
				</clipitem>
				<clipitem id="CSF_0210_v003 ">
					<name>CSF_0210_v003</name>
					<duration>120</duration>
					<rate>
						<ntsc>FALSE</ntsc>
						<timebase>25</timebase>
					</rate>
					<in>0</in>
					<out>120</out>
					<start>637</start>
					<end>757</end>
					<pixelaspectratio>Square</pixelaspectratio>
					<anamorphic>FALSE</anamorphic>
					<alphatype>none</alphatype>
					<masterclipid>CSF_0210_v003 1</masterclipid>
					<logginginfo>
						<scene/>
						<shottake/>
						<lognote/>
						<good>FALSE</good>
					</logginginfo>
					<labels>
						<label>B Roll</label>
						<label2/>
					</labels>
					<comments>
						<mastercomment1/>
						<mastercomment2/>
						<mastercomment3/>
						<mastercomment4/>
					</comments>
					<file id="CSF_0210_v003 2">
						<name>CSF_0210_v003.mov</name>
						<pathurl>file://localhost/Volumes/DeBao_EDIT_01/08_From%20CG/20210121-2/CSF_0210_v003.mov</pathurl>
						<rate>
							<timebase>25</timebase>
						</rate>
						<duration>120</duration>
						<metadata>
							<storage>QuickTime</storage>
							<key>uk.co.thefoundry.Writer</key>
							<size>5</size>
							<type>UTF8</type>
							<value>mov64</value>
						</metadata>
						<metadata>
							<storage>QuickTime</storage>
							<key>uk.co.thefoundry.Application</key>
							<size>4</size>
							<type>UTF8</type>
							<value>Nuke</value>
						</metadata>
						<metadata>
							<storage>QuickTime</storage>
							<key>uk.co.thefoundry.ApplicationVersion</key>
							<size>6</size>
							<type>UTF8</type>
							<value>11.2v3</value>
						</metadata>
						<metadata>
							<storage>QuickTime</storage>
							<key>uk.co.thefoundry.YCbCrMatrix</key>
							<size>7</size>
							<type>UTF8</type>
							<value>Rec 709</value>
						</metadata>
						<metadata>
							<storage>QuickTime</storage>
							<key>uk.co.thefoundry.Colorspace</key>
							<size>4</size>
							<type>UTF8</type>
							<value>sRGB</value>
						</metadata>
						<media>
							<video>
								<duration>120</duration>
								<samplecharacteristics>
									<width>1920</width>
									<height>1080</height>
								</samplecharacteristics>
							</video>
						</media>
					</file>
					<sourcetrack>
						<mediatype>video</mediatype>
					</sourcetrack>
					<fielddominance>none</fielddominance>
					<itemhistory>
						<uuid>77E6E96C-7A3F-4C0B-B11B-DF84273EC80E</uuid>
					</itemhistory>
				</clipitem>
				<clipitem id="CSF_0250_v003 ">
					<name>CSF_0250_v003</name>
					<duration>30</duration>
					<rate>
						<ntsc>FALSE</ntsc>
						<timebase>25</timebase>
					</rate>
					<in>0</in>
					<out>30</out>
					<start>757</start>
					<end>787</end>
					<pixelaspectratio>Square</pixelaspectratio>
					<anamorphic>FALSE</anamorphic>
					<alphatype>none</alphatype>
					<masterclipid>CSF_0250_v003 1</masterclipid>
					<logginginfo>
						<scene/>
						<shottake/>
						<lognote/>
						<good>FALSE</good>
					</logginginfo>
					<labels>
						<label>B Roll</label>
						<label2/>
					</labels>
					<comments>
						<mastercomment1/>
						<mastercomment2/>
						<mastercomment3/>
						<mastercomment4/>
					</comments>
					<file id="CSF_0250_v003 2">
						<name>CSF_0250_v003.mov</name>
						<pathurl>file://localhost/Volumes/DeBao_EDIT_01/08_From%20CG/20210121-2/CSF_0250_v003.mov</pathurl>
						<rate>
							<timebase>25</timebase>
						</rate>
						<duration>30</duration>
						<metadata>
							<storage>QuickTime</storage>
							<key>uk.co.thefoundry.Writer</key>
							<size>5</size>
							<type>UTF8</type>
							<value>mov64</value>
						</metadata>
						<metadata>
							<storage>QuickTime</storage>
							<key>uk.co.thefoundry.Application</key>
							<size>4</size>
							<type>UTF8</type>
							<value>Nuke</value>
						</metadata>
						<metadata>
							<storage>QuickTime</storage>
							<key>uk.co.thefoundry.ApplicationVersion</key>
							<size>6</size>
							<type>UTF8</type>
							<value>11.2v3</value>
						</metadata>
						<metadata>
							<storage>QuickTime</storage>
							<key>uk.co.thefoundry.YCbCrMatrix</key>
							<size>7</size>
							<type>UTF8</type>
							<value>Rec 709</value>
						</metadata>
						<metadata>
							<storage>QuickTime</storage>
							<key>uk.co.thefoundry.Colorspace</key>
							<size>4</size>
							<type>UTF8</type>
							<value>sRGB</value>
						</metadata>
						<media>
							<video>
								<duration>30</duration>
								<samplecharacteristics>
									<width>1920</width>
									<height>1080</height>
								</samplecharacteristics>
							</video>
						</media>
					</file>
					<sourcetrack>
						<mediatype>video</mediatype>
					</sourcetrack>
					<fielddominance>none</fielddominance>
					<itemhistory>
						<uuid>6080810B-689F-40FD-9EAD-4C799B11C0DC</uuid>
					</itemhistory>
				</clipitem>
				<clipitem id="CSF_0340_v003 ">
					<name>CSF_0340_v003</name>
					<duration>60</duration>
					<rate>
						<ntsc>FALSE</ntsc>
						<timebase>25</timebase>
					</rate>
					<in>0</in>
					<out>60</out>
					<start>787</start>
					<end>847</end>
					<pixelaspectratio>Square</pixelaspectratio>
					<anamorphic>FALSE</anamorphic>
					<alphatype>none</alphatype>
					<masterclipid>CSF_0340_v003 1</masterclipid>
					<logginginfo>
						<scene/>
						<shottake/>
						<lognote/>
						<good>FALSE</good>
					</logginginfo>
					<labels>
						<label>B Roll</label>
						<label2/>
					</labels>
					<comments>
						<mastercomment1/>
						<mastercomment2/>
						<mastercomment3/>
						<mastercomment4/>
					</comments>
					<file id="CSF_0340_v003 2">
						<name>CSF_0340_v003.mov</name>
						<pathurl>file://localhost/Volumes/DeBao_EDIT_01/08_From%20CG/20210121-2/CSF_0340_v003.mov</pathurl>
						<rate>
							<timebase>25</timebase>
						</rate>
						<duration>60</duration>
						<metadata>
							<storage>QuickTime</storage>
							<key>uk.co.thefoundry.Writer</key>
							<size>5</size>
							<type>UTF8</type>
							<value>mov64</value>
						</metadata>
						<metadata>
							<storage>QuickTime</storage>
							<key>uk.co.thefoundry.Application</key>
							<size>4</size>
							<type>UTF8</type>
							<value>Nuke</value>
						</metadata>
						<metadata>
							<storage>QuickTime</storage>
							<key>uk.co.thefoundry.ApplicationVersion</key>
							<size>6</size>
							<type>UTF8</type>
							<value>11.2v3</value>
						</metadata>
						<metadata>
							<storage>QuickTime</storage>
							<key>uk.co.thefoundry.YCbCrMatrix</key>
							<size>7</size>
							<type>UTF8</type>
							<value>Rec 709</value>
						</metadata>
						<metadata>
							<storage>QuickTime</storage>
							<key>uk.co.thefoundry.Colorspace</key>
							<size>4</size>
							<type>UTF8</type>
							<value>sRGB</value>
						</metadata>
						<media>
							<video>
								<duration>60</duration>
								<samplecharacteristics>
									<width>1920</width>
									<height>1080</height>
								</samplecharacteristics>
							</video>
						</media>
					</file>
					<sourcetrack>
						<mediatype>video</mediatype>
					</sourcetrack>
					<fielddominance>none</fielddominance>
					<itemhistory>
						<uuid>C3976264-9188-44C5-9730-3376026ECDC0</uuid>
					</itemhistory>
				</clipitem>
				<clipitem id="CSF_0430_v002 ">
					<name>CSF_0430_v002</name>
					<duration>24</duration>
					<rate>
						<ntsc>FALSE</ntsc>
						<timebase>25</timebase>
					</rate>
					<in>0</in>
					<out>24</out>
					<start>847</start>
					<end>871</end>
					<pixelaspectratio>Square</pixelaspectratio>
					<anamorphic>FALSE</anamorphic>
					<alphatype>none</alphatype>
					<masterclipid>CSF_0430_v002 1</masterclipid>
					<logginginfo>
						<scene/>
						<shottake/>
						<lognote/>
						<good>FALSE</good>
					</logginginfo>
					<labels>
						<label>B Roll</label>
						<label2/>
					</labels>
					<comments>
						<mastercomment1/>
						<mastercomment2/>
						<mastercomment3/>
						<mastercomment4/>
					</comments>
					<file id="CSF_0430_v002 2">
						<name>CSF_0430_v002.mov</name>
						<pathurl>file://localhost/Volumes/DeBao_EDIT_01/08_From%20CG/20210121-2/CSF_0430_v002.mov</pathurl>
						<rate>
							<timebase>25</timebase>
						</rate>
						<duration>24</duration>
						<metadata>
							<storage>QuickTime</storage>
							<key>uk.co.thefoundry.Writer</key>
							<size>5</size>
							<type>UTF8</type>
							<value>mov64</value>
						</metadata>
						<metadata>
							<storage>QuickTime</storage>
							<key>uk.co.thefoundry.Application</key>
							<size>4</size>
							<type>UTF8</type>
							<value>Nuke</value>
						</metadata>
						<metadata>
							<storage>QuickTime</storage>
							<key>uk.co.thefoundry.ApplicationVersion</key>
							<size>6</size>
							<type>UTF8</type>
							<value>11.2v3</value>
						</metadata>
						<metadata>
							<storage>QuickTime</storage>
							<key>uk.co.thefoundry.YCbCrMatrix</key>
							<size>7</size>
							<type>UTF8</type>
							<value>Rec 709</value>
						</metadata>
						<metadata>
							<storage>QuickTime</storage>
							<key>uk.co.thefoundry.Colorspace</key>
							<size>4</size>
							<type>UTF8</type>
							<value>sRGB</value>
						</metadata>
						<media>
							<video>
								<duration>24</duration>
								<samplecharacteristics>
									<width>1920</width>
									<height>1080</height>
								</samplecharacteristics>
							</video>
						</media>
					</file>
					<sourcetrack>
						<mediatype>video</mediatype>
					</sourcetrack>
					<fielddominance>none</fielddominance>
					<itemhistory>
						<uuid>B44EB3A2-43DD-4FEF-AEFB-D23296C69082</uuid>
					</itemhistory>
				</clipitem>
				<clipitem id="CSF_0440_v002 ">
					<name>CSF_0440_v002</name>
					<duration>20</duration>
					<rate>
						<ntsc>FALSE</ntsc>
						<timebase>25</timebase>
					</rate>
					<in>0</in>
					<out>20</out>
					<start>871</start>
					<end>891</end>
					<pixelaspectratio>Square</pixelaspectratio>
					<anamorphic>FALSE</anamorphic>
					<alphatype>none</alphatype>
					<masterclipid>CSF_0440_v002 1</masterclipid>
					<logginginfo>
						<scene/>
						<shottake/>
						<lognote/>
						<good>FALSE</good>
					</logginginfo>
					<labels>
						<label>B Roll</label>
						<label2/>
					</labels>
					<comments>
						<mastercomment1/>
						<mastercomment2/>
						<mastercomment3/>
						<mastercomment4/>
					</comments>
					<file id="CSF_0440_v002 2">
						<name>CSF_0440_v002.mov</name>
						<pathurl>file://localhost/Volumes/DeBao_EDIT_01/08_From%20CG/20210121-2/CSF_0440_v002.mov</pathurl>
						<rate>
							<timebase>25</timebase>
						</rate>
						<duration>20</duration>
						<metadata>
							<storage>QuickTime</storage>
							<key>uk.co.thefoundry.Writer</key>
							<size>5</size>
							<type>UTF8</type>
							<value>mov64</value>
						</metadata>
						<metadata>
							<storage>QuickTime</storage>
							<key>uk.co.thefoundry.Application</key>
							<size>4</size>
							<type>UTF8</type>
							<value>Nuke</value>
						</metadata>
						<metadata>
							<storage>QuickTime</storage>
							<key>uk.co.thefoundry.ApplicationVersion</key>
							<size>6</size>
							<type>UTF8</type>
							<value>11.2v3</value>
						</metadata>
						<metadata>
							<storage>QuickTime</storage>
							<key>uk.co.thefoundry.YCbCrMatrix</key>
							<size>7</size>
							<type>UTF8</type>
							<value>Rec 709</value>
						</metadata>
						<metadata>
							<storage>QuickTime</storage>
							<key>uk.co.thefoundry.Colorspace</key>
							<size>4</size>
							<type>UTF8</type>
							<value>sRGB</value>
						</metadata>
						<media>
							<video>
								<duration>20</duration>
								<samplecharacteristics>
									<width>1920</width>
									<height>1080</height>
								</samplecharacteristics>
							</video>
						</media>
					</file>
					<sourcetrack>
						<mediatype>video</mediatype>
					</sourcetrack>
					<fielddominance>none</fielddominance>
					<itemhistory>
						<uuid>373EBF7C-1DF7-4377-959A-B156F6F63C2C</uuid>
					</itemhistory>
				</clipitem>
				<clipitem id="CSF_0450_v002 ">
					<name>CSF_0450_v002</name>
					<duration>18</duration>
					<rate>
						<ntsc>FALSE</ntsc>
						<timebase>25</timebase>
					</rate>
					<in>0</in>
					<out>18</out>
					<start>891</start>
					<end>909</end>
					<pixelaspectratio>Square</pixelaspectratio>
					<anamorphic>FALSE</anamorphic>
					<alphatype>none</alphatype>
					<masterclipid>CSF_0450_v002 1</masterclipid>
					<logginginfo>
						<scene/>
						<shottake/>
						<lognote/>
						<good>FALSE</good>
					</logginginfo>
					<labels>
						<label>B Roll</label>
						<label2/>
					</labels>
					<comments>
						<mastercomment1/>
						<mastercomment2/>
						<mastercomment3/>
						<mastercomment4/>
					</comments>
					<file id="CSF_0450_v002 2">
						<name>CSF_0450_v002.mov</name>
						<pathurl>file://localhost/Volumes/DeBao_EDIT_01/08_From%20CG/20210121-2/CSF_0450_v002.mov</pathurl>
						<rate>
							<timebase>25</timebase>
						</rate>
						<duration>18</duration>
						<metadata>
							<storage>QuickTime</storage>
							<key>uk.co.thefoundry.Writer</key>
							<size>5</size>
							<type>UTF8</type>
							<value>mov64</value>
						</metadata>
						<metadata>
							<storage>QuickTime</storage>
							<key>uk.co.thefoundry.Application</key>
							<size>4</size>
							<type>UTF8</type>
							<value>Nuke</value>
						</metadata>
						<metadata>
							<storage>QuickTime</storage>
							<key>uk.co.thefoundry.ApplicationVersion</key>
							<size>6</size>
							<type>UTF8</type>
							<value>11.2v3</value>
						</metadata>
						<metadata>
							<storage>QuickTime</storage>
							<key>uk.co.thefoundry.YCbCrMatrix</key>
							<size>7</size>
							<type>UTF8</type>
							<value>Rec 709</value>
						</metadata>
						<metadata>
							<storage>QuickTime</storage>
							<key>uk.co.thefoundry.Colorspace</key>
							<size>4</size>
							<type>UTF8</type>
							<value>sRGB</value>
						</metadata>
						<media>
							<video>
								<duration>18</duration>
								<samplecharacteristics>
									<width>1920</width>
									<height>1080</height>
								</samplecharacteristics>
							</video>
						</media>
					</file>
					<sourcetrack>
						<mediatype>video</mediatype>
					</sourcetrack>
					<fielddominance>none</fielddominance>
					<itemhistory>
						<uuid>47978B63-CC31-499C-BF9C-FBFB54429B20</uuid>
					</itemhistory>
				</clipitem>
				<clipitem id="CSF_0460_v002 ">
					<name>CSF_0460_v002</name>
					<duration>31</duration>
					<rate>
						<ntsc>FALSE</ntsc>
						<timebase>25</timebase>
					</rate>
					<in>0</in>
					<out>31</out>
					<start>909</start>
					<end>940</end>
					<pixelaspectratio>Square</pixelaspectratio>
					<anamorphic>FALSE</anamorphic>
					<alphatype>none</alphatype>
					<masterclipid>CSF_0460_v002 1</masterclipid>
					<logginginfo>
						<scene/>
						<shottake/>
						<lognote/>
						<good>FALSE</good>
					</logginginfo>
					<labels>
						<label>B Roll</label>
						<label2/>
					</labels>
					<comments>
						<mastercomment1/>
						<mastercomment2/>
						<mastercomment3/>
						<mastercomment4/>
					</comments>
					<file id="CSF_0460_v002 2">
						<name>CSF_0460_v002.mov</name>
						<pathurl>file://localhost/Volumes/DeBao_EDIT_01/08_From%20CG/20210121-2/CSF_0460_v002.mov</pathurl>
						<rate>
							<timebase>25</timebase>
						</rate>
						<duration>31</duration>
						<metadata>
							<storage>QuickTime</storage>
							<key>uk.co.thefoundry.Writer</key>
							<size>5</size>
							<type>UTF8</type>
							<value>mov64</value>
						</metadata>
						<metadata>
							<storage>QuickTime</storage>
							<key>uk.co.thefoundry.Application</key>
							<size>4</size>
							<type>UTF8</type>
							<value>Nuke</value>
						</metadata>
						<metadata>
							<storage>QuickTime</storage>
							<key>uk.co.thefoundry.ApplicationVersion</key>
							<size>6</size>
							<type>UTF8</type>
							<value>11.2v3</value>
						</metadata>
						<metadata>
							<storage>QuickTime</storage>
							<key>uk.co.thefoundry.YCbCrMatrix</key>
							<size>7</size>
							<type>UTF8</type>
							<value>Rec 709</value>
						</metadata>
						<metadata>
							<storage>QuickTime</storage>
							<key>uk.co.thefoundry.Colorspace</key>
							<size>4</size>
							<type>UTF8</type>
							<value>sRGB</value>
						</metadata>
						<media>
							<video>
								<duration>31</duration>
								<samplecharacteristics>
									<width>1920</width>
									<height>1080</height>
								</samplecharacteristics>
							</video>
						</media>
					</file>
					<sourcetrack>
						<mediatype>video</mediatype>
					</sourcetrack>
					<fielddominance>none</fielddominance>
					<itemhistory>
						<uuid>345FCF97-73CA-47C6-8ADD-794B9401F6F8</uuid>
					</itemhistory>
				</clipitem>
				<clipitem id="CSF_0670_v002 ">
					<name>CSF_0670_v002</name>
					<duration>72</duration>
					<rate>
						<ntsc>FALSE</ntsc>
						<timebase>25</timebase>
					</rate>
					<in>0</in>
					<out>72</out>
					<start>940</start>
					<end>1012</end>
					<pixelaspectratio>Square</pixelaspectratio>
					<anamorphic>FALSE</anamorphic>
					<alphatype>none</alphatype>
					<masterclipid>CSF_0670_v002 1</masterclipid>
					<logginginfo>
						<scene/>
						<shottake/>
						<lognote/>
						<good>FALSE</good>
					</logginginfo>
					<labels>
						<label>B Roll</label>
						<label2/>
					</labels>
					<comments>
						<mastercomment1/>
						<mastercomment2/>
						<mastercomment3/>
						<mastercomment4/>
					</comments>
					<file id="CSF_0670_v002 2">
						<name>CSF_0670_v002.mov</name>
						<pathurl>file://localhost/Volumes/DeBao_EDIT_01/08_From%20CG/20210121-2/CSF_0670_v002.mov</pathurl>
						<rate>
							<timebase>25</timebase>
						</rate>
						<duration>72</duration>
						<metadata>
							<storage>QuickTime</storage>
							<key>uk.co.thefoundry.Writer</key>
							<size>5</size>
							<type>UTF8</type>
							<value>mov64</value>
						</metadata>
						<metadata>
							<storage>QuickTime</storage>
							<key>uk.co.thefoundry.Application</key>
							<size>4</size>
							<type>UTF8</type>
							<value>Nuke</value>
						</metadata>
						<metadata>
							<storage>QuickTime</storage>
							<key>uk.co.thefoundry.ApplicationVersion</key>
							<size>6</size>
							<type>UTF8</type>
							<value>11.2v3</value>
						</metadata>
						<metadata>
							<storage>QuickTime</storage>
							<key>uk.co.thefoundry.YCbCrMatrix</key>
							<size>7</size>
							<type>UTF8</type>
							<value>Rec 709</value>
						</metadata>
						<metadata>
							<storage>QuickTime</storage>
							<key>uk.co.thefoundry.Colorspace</key>
							<size>4</size>
							<type>UTF8</type>
							<value>sRGB</value>
						</metadata>
						<media>
							<video>
								<duration>72</duration>
								<samplecharacteristics>
									<width>1920</width>
									<height>1080</height>
								</samplecharacteristics>
							</video>
						</media>
					</file>
					<sourcetrack>
						<mediatype>video</mediatype>
					</sourcetrack>
					<fielddominance>none</fielddominance>
					<itemhistory>
						<uuid>9DB54220-9E69-4710-A9B6-2E51E9565665</uuid>
					</itemhistory>
				</clipitem>
				<clipitem id="CSF_0700_v004 ">
					<name>CSF_0700_v004</name>
					<duration>30</duration>
					<rate>
						<ntsc>FALSE</ntsc>
						<timebase>25</timebase>
					</rate>
					<in>0</in>
					<out>30</out>
					<start>1012</start>
					<end>1042</end>
					<pixelaspectratio>Square</pixelaspectratio>
					<anamorphic>FALSE</anamorphic>
					<alphatype>none</alphatype>
					<masterclipid>CSF_0700_v004 1</masterclipid>
					<logginginfo>
						<scene/>
						<shottake/>
						<lognote/>
						<good>FALSE</good>
					</logginginfo>
					<labels>
						<label>B Roll</label>
						<label2/>
					</labels>
					<comments>
						<mastercomment1/>
						<mastercomment2/>
						<mastercomment3/>
						<mastercomment4/>
					</comments>
					<file id="CSF_0700_v004 2">
						<name>CSF_0700_v004.mov</name>
						<pathurl>file://localhost/Volumes/DeBao_EDIT_01/08_From%20CG/20210121-2/CSF_0700_v004.mov</pathurl>
						<rate>
							<timebase>25</timebase>
						</rate>
						<duration>30</duration>
						<metadata>
							<storage>QuickTime</storage>
							<key>uk.co.thefoundry.Writer</key>
							<size>5</size>
							<type>UTF8</type>
							<value>mov64</value>
						</metadata>
						<metadata>
							<storage>QuickTime</storage>
							<key>uk.co.thefoundry.Application</key>
							<size>4</size>
							<type>UTF8</type>
							<value>Nuke</value>
						</metadata>
						<metadata>
							<storage>QuickTime</storage>
							<key>uk.co.thefoundry.ApplicationVersion</key>
							<size>6</size>
							<type>UTF8</type>
							<value>11.2v3</value>
						</metadata>
						<metadata>
							<storage>QuickTime</storage>
							<key>uk.co.thefoundry.YCbCrMatrix</key>
							<size>7</size>
							<type>UTF8</type>
							<value>Rec 709</value>
						</metadata>
						<metadata>
							<storage>QuickTime</storage>
							<key>uk.co.thefoundry.Colorspace</key>
							<size>4</size>
							<type>UTF8</type>
							<value>sRGB</value>
						</metadata>
						<media>
							<video>
								<duration>30</duration>
								<samplecharacteristics>
									<width>1920</width>
									<height>1080</height>
								</samplecharacteristics>
							</video>
						</media>
					</file>
					<sourcetrack>
						<mediatype>video</mediatype>
					</sourcetrack>
					<fielddominance>none</fielddominance>
					<itemhistory>
						<uuid>0EDE98EF-392C-4212-BF50-77F883A90F17</uuid>
					</itemhistory>
				</clipitem>
				<clipitem id="CSF_0730_v002">
					<name>CSF_0730_v002</name>
					<duration>29</duration>
					<rate>
						<ntsc>FALSE</ntsc>
						<timebase>25</timebase>
					</rate>
					<in>0</in>
					<out>29</out>
					<start>1042</start>
					<end>1071</end>
					<pixelaspectratio>Square</pixelaspectratio>
					<anamorphic>FALSE</anamorphic>
					<alphatype>none</alphatype>
					<masterclipid>CSF_0730_v002</masterclipid>
					<logginginfo>
						<scene/>
						<shottake/>
						<lognote/>
						<good>FALSE</good>
					</logginginfo>
					<labels>
						<label>Interviews</label>
						<label2/>
					</labels>
					<comments>
						<mastercomment1/>
						<mastercomment2/>
						<mastercomment3/>
						<mastercomment4/>
					</comments>
					<file id="CSF_0730_v002 ">
						<name>CSF_0730_v002.mov</name>
						<pathurl>file://localhost/Volumes/DeBao_EDIT_01/08_From%20CG/20210121-2/CSF_0730_v002.mov</pathurl>
						<rate>
							<timebase>25</timebase>
						</rate>
						<duration>29</duration>
						<metadata>
							<storage>QuickTime</storage>
							<key>uk.co.thefoundry.Writer</key>
							<size>5</size>
							<type>UTF8</type>
							<value>mov64</value>
						</metadata>
						<metadata>
							<storage>QuickTime</storage>
							<key>uk.co.thefoundry.Application</key>
							<size>4</size>
							<type>UTF8</type>
							<value>Nuke</value>
						</metadata>
						<metadata>
							<storage>QuickTime</storage>
							<key>uk.co.thefoundry.ApplicationVersion</key>
							<size>6</size>
							<type>UTF8</type>
							<value>11.2v3</value>
						</metadata>
						<metadata>
							<storage>QuickTime</storage>
							<key>uk.co.thefoundry.YCbCrMatrix</key>
							<size>7</size>
							<type>UTF8</type>
							<value>Rec 709</value>
						</metadata>
						<metadata>
							<storage>QuickTime</storage>
							<key>uk.co.thefoundry.Colorspace</key>
							<size>4</size>
							<type>UTF8</type>
							<value>sRGB</value>
						</metadata>
						<media>
							<video>
								<duration>29</duration>
								<samplecharacteristics>
									<width>1920</width>
									<height>1080</height>
								</samplecharacteristics>
							</video>
						</media>
					</file>
					<sourcetrack>
						<mediatype>video</mediatype>
					</sourcetrack>
					<fielddominance>none</fielddominance>
					<itemhistory>
						<uuid>290F70BF-B903-47B9-A142-869CC3BF4059</uuid>
					</itemhistory>
				</clipitem>
				<clipitem id="DFN_0020_v002 ">
					<name>DFN_0020_v002</name>
					<duration>73</duration>
					<rate>
						<ntsc>FALSE</ntsc>
						<timebase>25</timebase>
					</rate>
					<in>0</in>
					<out>73</out>
					<start>1071</start>
					<end>1144</end>
					<pixelaspectratio>Square</pixelaspectratio>
					<anamorphic>FALSE</anamorphic>
					<alphatype>none</alphatype>
					<masterclipid>DFN_0020_v002 1</masterclipid>
					<logginginfo>
						<scene/>
						<shottake/>
						<lognote/>
						<good>FALSE</good>
					</logginginfo>
					<labels>
						<label>B Roll</label>
						<label2/>
					</labels>
					<comments>
						<mastercomment1/>
						<mastercomment2/>
						<mastercomment3/>
						<mastercomment4/>
					</comments>
					<file id="DFN_0020_v002 2">
						<name>DFN_0020_v002.mov</name>
						<pathurl>file://localhost/Volumes/DeBao_EDIT_01/08_From%20CG/20210121-2/DFN_0020_v002.mov</pathurl>
						<rate>
							<timebase>25</timebase>
						</rate>
						<duration>73</duration>
						<metadata>
							<storage>QuickTime</storage>
							<key>uk.co.thefoundry.Writer</key>
							<size>5</size>
							<type>UTF8</type>
							<value>mov64</value>
						</metadata>
						<metadata>
							<storage>QuickTime</storage>
							<key>uk.co.thefoundry.Application</key>
							<size>4</size>
							<type>UTF8</type>
							<value>Nuke</value>
						</metadata>
						<metadata>
							<storage>QuickTime</storage>
							<key>uk.co.thefoundry.ApplicationVersion</key>
							<size>6</size>
							<type>UTF8</type>
							<value>11.1v1</value>
						</metadata>
						<metadata>
							<storage>QuickTime</storage>
							<key>uk.co.thefoundry.YCbCrMatrix</key>
							<size>7</size>
							<type>UTF8</type>
							<value>Rec 709</value>
						</metadata>
						<metadata>
							<storage>QuickTime</storage>
							<key>uk.co.thefoundry.Colorspace</key>
							<size>6</size>
							<type>UTF8</type>
							<value>rec709</value>
						</metadata>
						<media>
							<video>
								<duration>73</duration>
								<samplecharacteristics>
									<width>1920</width>
									<height>1080</height>
								</samplecharacteristics>
							</video>
						</media>
					</file>
					<sourcetrack>
						<mediatype>video</mediatype>
					</sourcetrack>
					<fielddominance>none</fielddominance>
					<itemhistory>
						<uuid>132E2B7A-AF0F-4EB3-8D21-0BA370B17C4E</uuid>
					</itemhistory>
				</clipitem>
				<clipitem id="DFN_0030_v002 ">
					<name>DFN_0030_v002</name>
					<duration>42</duration>
					<rate>
						<ntsc>FALSE</ntsc>
						<timebase>25</timebase>
					</rate>
					<in>0</in>
					<out>42</out>
					<start>1144</start>
					<end>1186</end>
					<pixelaspectratio>Square</pixelaspectratio>
					<anamorphic>FALSE</anamorphic>
					<alphatype>none</alphatype>
					<masterclipid>DFN_0030_v002 1</masterclipid>
					<logginginfo>
						<scene/>
						<shottake/>
						<lognote/>
						<good>FALSE</good>
					</logginginfo>
					<labels>
						<label>B Roll</label>
						<label2/>
					</labels>
					<comments>
						<mastercomment1/>
						<mastercomment2/>
						<mastercomment3/>
						<mastercomment4/>
					</comments>
					<file id="DFN_0030_v002 2">
						<name>DFN_0030_v002.mov</name>
						<pathurl>file://localhost/Volumes/DeBao_EDIT_01/08_From%20CG/20210121-2/DFN_0030_v002.mov</pathurl>
						<rate>
							<timebase>25</timebase>
						</rate>
						<duration>42</duration>
						<metadata>
							<storage>QuickTime</storage>
							<key>uk.co.thefoundry.Writer</key>
							<size>5</size>
							<type>UTF8</type>
							<value>mov64</value>
						</metadata>
						<metadata>
							<storage>QuickTime</storage>
							<key>uk.co.thefoundry.Application</key>
							<size>4</size>
							<type>UTF8</type>
							<value>Nuke</value>
						</metadata>
						<metadata>
							<storage>QuickTime</storage>
							<key>uk.co.thefoundry.ApplicationVersion</key>
							<size>6</size>
							<type>UTF8</type>
							<value>11.2v3</value>
						</metadata>
						<metadata>
							<storage>QuickTime</storage>
							<key>uk.co.thefoundry.YCbCrMatrix</key>
							<size>7</size>
							<type>UTF8</type>
							<value>Rec 709</value>
						</metadata>
						<metadata>
							<storage>QuickTime</storage>
							<key>uk.co.thefoundry.Colorspace</key>
							<size>4</size>
							<type>UTF8</type>
							<value>sRGB</value>
						</metadata>
						<media>
							<video>
								<duration>42</duration>
								<samplecharacteristics>
									<width>1920</width>
									<height>1080</height>
								</samplecharacteristics>
							</video>
						</media>
					</file>
					<sourcetrack>
						<mediatype>video</mediatype>
					</sourcetrack>
					<fielddominance>none</fielddominance>
					<itemhistory>
						<uuid>51A15B35-7292-4E0F-B373-A4732C6C0C36</uuid>
					</itemhistory>
				</clipitem>
				<clipitem id="DFN_0040_v002 ">
					<name>DFN_0040_v002</name>
					<duration>21</duration>
					<rate>
						<ntsc>FALSE</ntsc>
						<timebase>25</timebase>
					</rate>
					<in>0</in>
					<out>21</out>
					<start>1186</start>
					<end>1207</end>
					<pixelaspectratio>Square</pixelaspectratio>
					<anamorphic>FALSE</anamorphic>
					<alphatype>none</alphatype>
					<masterclipid>DFN_0040_v002 1</masterclipid>
					<logginginfo>
						<scene/>
						<shottake/>
						<lognote/>
						<good>FALSE</good>
					</logginginfo>
					<labels>
						<label>B Roll</label>
						<label2/>
					</labels>
					<comments>
						<mastercomment1/>
						<mastercomment2/>
						<mastercomment3/>
						<mastercomment4/>
					</comments>
					<file id="DFN_0040_v002 2">
						<name>DFN_0040_v002.mov</name>
						<pathurl>file://localhost/Volumes/DeBao_EDIT_01/08_From%20CG/20210121-2/DFN_0040_v002.mov</pathurl>
						<rate>
							<timebase>25</timebase>
						</rate>
						<duration>21</duration>
						<metadata>
							<storage>QuickTime</storage>
							<key>uk.co.thefoundry.Writer</key>
							<size>5</size>
							<type>UTF8</type>
							<value>mov64</value>
						</metadata>
						<metadata>
							<storage>QuickTime</storage>
							<key>uk.co.thefoundry.Application</key>
							<size>4</size>
							<type>UTF8</type>
							<value>Nuke</value>
						</metadata>
						<metadata>
							<storage>QuickTime</storage>
							<key>uk.co.thefoundry.ApplicationVersion</key>
							<size>6</size>
							<type>UTF8</type>
							<value>11.1v1</value>
						</metadata>
						<metadata>
							<storage>QuickTime</storage>
							<key>uk.co.thefoundry.YCbCrMatrix</key>
							<size>7</size>
							<type>UTF8</type>
							<value>Rec 709</value>
						</metadata>
						<metadata>
							<storage>QuickTime</storage>
							<key>uk.co.thefoundry.Colorspace</key>
							<size>4</size>
							<type>UTF8</type>
							<value>sRGB</value>
						</metadata>
						<media>
							<video>
								<duration>21</duration>
								<samplecharacteristics>
									<width>1920</width>
									<height>1080</height>
								</samplecharacteristics>
							</video>
						</media>
					</file>
					<sourcetrack>
						<mediatype>video</mediatype>
					</sourcetrack>
					<fielddominance>none</fielddominance>
					<itemhistory>
						<uuid>1CA57DB8-087C-4DE8-9674-E8E20769CE64</uuid>
					</itemhistory>
				</clipitem>
				<clipitem id="DFN_0050_v002 ">
					<name>DFN_0050_v002</name>
					<duration>15</duration>
					<rate>
						<ntsc>FALSE</ntsc>
						<timebase>25</timebase>
					</rate>
					<in>0</in>
					<out>15</out>
					<start>1207</start>
					<end>1222</end>
					<pixelaspectratio>Square</pixelaspectratio>
					<anamorphic>FALSE</anamorphic>
					<alphatype>none</alphatype>
					<masterclipid>DFN_0050_v002 1</masterclipid>
					<logginginfo>
						<scene/>
						<shottake/>
						<lognote/>
						<good>FALSE</good>
					</logginginfo>
					<labels>
						<label>B Roll</label>
						<label2/>
					</labels>
					<comments>
						<mastercomment1/>
						<mastercomment2/>
						<mastercomment3/>
						<mastercomment4/>
					</comments>
					<file id="DFN_0050_v002 2">
						<name>DFN_0050_v002.mov</name>
						<pathurl>file://localhost/Volumes/DeBao_EDIT_01/08_From%20CG/20210121-2/DFN_0050_v002.mov</pathurl>
						<rate>
							<timebase>25</timebase>
						</rate>
						<duration>15</duration>
						<metadata>
							<storage>QuickTime</storage>
							<key>uk.co.thefoundry.Writer</key>
							<size>5</size>
							<type>UTF8</type>
							<value>mov64</value>
						</metadata>
						<metadata>
							<storage>QuickTime</storage>
							<key>uk.co.thefoundry.Application</key>
							<size>4</size>
							<type>UTF8</type>
							<value>Nuke</value>
						</metadata>
						<metadata>
							<storage>QuickTime</storage>
							<key>uk.co.thefoundry.ApplicationVersion</key>
							<size>6</size>
							<type>UTF8</type>
							<value>11.2v3</value>
						</metadata>
						<metadata>
							<storage>QuickTime</storage>
							<key>uk.co.thefoundry.YCbCrMatrix</key>
							<size>7</size>
							<type>UTF8</type>
							<value>Rec 709</value>
						</metadata>
						<metadata>
							<storage>QuickTime</storage>
							<key>uk.co.thefoundry.Colorspace</key>
							<size>4</size>
							<type>UTF8</type>
							<value>sRGB</value>
						</metadata>
						<media>
							<video>
								<duration>15</duration>
								<samplecharacteristics>
									<width>1920</width>
									<height>1080</height>
								</samplecharacteristics>
							</video>
						</media>
					</file>
					<sourcetrack>
						<mediatype>video</mediatype>
					</sourcetrack>
					<fielddominance>none</fielddominance>
					<itemhistory>
						<uuid>2875E1FB-ACA9-4AE5-A214-C0A31A93E7A0</uuid>
					</itemhistory>
				</clipitem>
				<clipitem id="DFN_0070_v002 ">
					<name>DFN_0070_v002</name>
					<duration>29</duration>
					<rate>
						<ntsc>FALSE</ntsc>
						<timebase>25</timebase>
					</rate>
					<in>0</in>
					<out>29</out>
					<start>1222</start>
					<end>1251</end>
					<pixelaspectratio>Square</pixelaspectratio>
					<anamorphic>FALSE</anamorphic>
					<alphatype>none</alphatype>
					<masterclipid>DFN_0070_v002 1</masterclipid>
					<logginginfo>
						<scene/>
						<shottake/>
						<lognote/>
						<good>FALSE</good>
					</logginginfo>
					<labels>
						<label>B Roll</label>
						<label2/>
					</labels>
					<comments>
						<mastercomment1/>
						<mastercomment2/>
						<mastercomment3/>
						<mastercomment4/>
					</comments>
					<file id="DFN_0070_v002 2">
						<name>DFN_0070_v002.mov</name>
						<pathurl>file://localhost/Volumes/DeBao_EDIT_01/08_From%20CG/20210121-2/DFN_0070_v002.mov</pathurl>
						<rate>
							<timebase>25</timebase>
						</rate>
						<duration>29</duration>
						<metadata>
							<storage>QuickTime</storage>
							<key>uk.co.thefoundry.Writer</key>
							<size>5</size>
							<type>UTF8</type>
							<value>mov64</value>
						</metadata>
						<metadata>
							<storage>QuickTime</storage>
							<key>uk.co.thefoundry.Application</key>
							<size>4</size>
							<type>UTF8</type>
							<value>Nuke</value>
						</metadata>
						<metadata>
							<storage>QuickTime</storage>
							<key>uk.co.thefoundry.ApplicationVersion</key>
							<size>6</size>
							<type>UTF8</type>
							<value>11.2v3</value>
						</metadata>
						<metadata>
							<storage>QuickTime</storage>
							<key>uk.co.thefoundry.YCbCrMatrix</key>
							<size>7</size>
							<type>UTF8</type>
							<value>Rec 709</value>
						</metadata>
						<metadata>
							<storage>QuickTime</storage>
							<key>uk.co.thefoundry.Colorspace</key>
							<size>4</size>
							<type>UTF8</type>
							<value>sRGB</value>
						</metadata>
						<media>
							<video>
								<duration>29</duration>
								<samplecharacteristics>
									<width>1920</width>
									<height>1080</height>
								</samplecharacteristics>
							</video>
						</media>
					</file>
					<sourcetrack>
						<mediatype>video</mediatype>
					</sourcetrack>
					<fielddominance>none</fielddominance>
					<itemhistory>
						<uuid>4C544081-0535-4012-8535-F56BC6CB07C3</uuid>
					</itemhistory>
				</clipitem>
				<clipitem id="DFN_0090_v003 ">
					<name>DFN_0090_v003</name>
					<duration>28</duration>
					<rate>
						<ntsc>FALSE</ntsc>
						<timebase>25</timebase>
					</rate>
					<in>0</in>
					<out>28</out>
					<start>1251</start>
					<end>1279</end>
					<pixelaspectratio>Square</pixelaspectratio>
					<anamorphic>FALSE</anamorphic>
					<alphatype>none</alphatype>
					<masterclipid>DFN_0090_v003 1</masterclipid>
					<logginginfo>
						<scene/>
						<shottake/>
						<lognote/>
						<good>FALSE</good>
					</logginginfo>
					<labels>
						<label>B Roll</label>
						<label2/>
					</labels>
					<comments>
						<mastercomment1/>
						<mastercomment2/>
						<mastercomment3/>
						<mastercomment4/>
					</comments>
					<file id="DFN_0090_v003 2">
						<name>DFN_0090_v003.mov</name>
						<pathurl>file://localhost/Volumes/DeBao_EDIT_01/08_From%20CG/20210121-2/DFN_0090_v003.mov</pathurl>
						<rate>
							<timebase>25</timebase>
						</rate>
						<duration>28</duration>
						<metadata>
							<storage>QuickTime</storage>
							<key>uk.co.thefoundry.Writer</key>
							<size>5</size>
							<type>UTF8</type>
							<value>mov64</value>
						</metadata>
						<metadata>
							<storage>QuickTime</storage>
							<key>uk.co.thefoundry.Application</key>
							<size>4</size>
							<type>UTF8</type>
							<value>Nuke</value>
						</metadata>
						<metadata>
							<storage>QuickTime</storage>
							<key>uk.co.thefoundry.ApplicationVersion</key>
							<size>6</size>
							<type>UTF8</type>
							<value>11.2v3</value>
						</metadata>
						<metadata>
							<storage>QuickTime</storage>
							<key>uk.co.thefoundry.YCbCrMatrix</key>
							<size>7</size>
							<type>UTF8</type>
							<value>Rec 709</value>
						</metadata>
						<metadata>
							<storage>QuickTime</storage>
							<key>uk.co.thefoundry.Colorspace</key>
							<size>4</size>
							<type>UTF8</type>
							<value>sRGB</value>
						</metadata>
						<media>
							<video>
								<duration>28</duration>
								<samplecharacteristics>
									<width>1920</width>
									<height>1080</height>
								</samplecharacteristics>
							</video>
						</media>
					</file>
					<sourcetrack>
						<mediatype>video</mediatype>
					</sourcetrack>
					<fielddominance>none</fielddominance>
					<itemhistory>
						<uuid>F277F240-DAC7-4BC5-8E86-9C40323B819A</uuid>
					</itemhistory>
				</clipitem>
				<clipitem id="DFN_0160_v003 ">
					<name>DFN_0160_v003</name>
					<duration>33</duration>
					<rate>
						<ntsc>FALSE</ntsc>
						<timebase>25</timebase>
					</rate>
					<in>0</in>
					<out>33</out>
					<start>1279</start>
					<end>1312</end>
					<pixelaspectratio>Square</pixelaspectratio>
					<anamorphic>FALSE</anamorphic>
					<alphatype>none</alphatype>
					<masterclipid>DFN_0160_v003 1</masterclipid>
					<logginginfo>
						<scene/>
						<shottake/>
						<lognote/>
						<good>FALSE</good>
					</logginginfo>
					<labels>
						<label2/>
					</labels>
					<comments>
						<mastercomment1/>
						<mastercomment2/>
						<mastercomment3/>
						<mastercomment4/>
					</comments>
					<file id="DFN_0160_v003 2">
						<name>DFN_0160_v003.mov</name>
						<pathurl>file://localhost/Volumes/DeBao_EDIT_01/08_From%20CG/20210121-2/DFN_0160_v003.mov</pathurl>
						<rate>
							<timebase>25</timebase>
						</rate>
						<duration>33</duration>
						<metadata>
							<storage>QuickTime</storage>
							<key>uk.co.thefoundry.Writer</key>
							<size>5</size>
							<type>UTF8</type>
							<value>mov64</value>
						</metadata>
						<metadata>
							<storage>QuickTime</storage>
							<key>uk.co.thefoundry.Application</key>
							<size>4</size>
							<type>UTF8</type>
							<value>Nuke</value>
						</metadata>
						<metadata>
							<storage>QuickTime</storage>
							<key>uk.co.thefoundry.ApplicationVersion</key>
							<size>6</size>
							<type>UTF8</type>
							<value>11.2v3</value>
						</metadata>
						<metadata>
							<storage>QuickTime</storage>
							<key>uk.co.thefoundry.YCbCrMatrix</key>
							<size>7</size>
							<type>UTF8</type>
							<value>Rec 709</value>
						</metadata>
						<metadata>
							<storage>QuickTime</storage>
							<key>uk.co.thefoundry.Colorspace</key>
							<size>4</size>
							<type>UTF8</type>
							<value>sRGB</value>
						</metadata>
						<media>
							<video>
								<duration>33</duration>
								<samplecharacteristics>
									<width>1920</width>
									<height>1080</height>
								</samplecharacteristics>
							</video>
						</media>
					</file>
					<sourcetrack>
						<mediatype>video</mediatype>
					</sourcetrack>
					<fielddominance>none</fielddominance>
					<itemhistory>
						<uuid>7953F8FA-E0E4-40C4-BFD1-EFB2457B38BB</uuid>
					</itemhistory>
				</clipitem>
				<clipitem id="DFN_0180_v002 ">
					<name>DFN_0180_v002</name>
					<duration>70</duration>
					<rate>
						<ntsc>FALSE</ntsc>
						<timebase>25</timebase>
					</rate>
					<in>0</in>
					<out>70</out>
					<start>1312</start>
					<end>1382</end>
					<pixelaspectratio>Square</pixelaspectratio>
					<anamorphic>FALSE</anamorphic>
					<alphatype>none</alphatype>
					<masterclipid>DFN_0180_v002 1</masterclipid>
					<logginginfo>
						<scene/>
						<shottake/>
						<lognote/>
						<good>FALSE</good>
					</logginginfo>
					<labels>
						<label2/>
					</labels>
					<comments>
						<mastercomment1/>
						<mastercomment2/>
						<mastercomment3/>
						<mastercomment4/>
					</comments>
					<file id="DFN_0180_v002 2">
						<name>DFN_0180_v002.mov</name>
						<pathurl>file://localhost/Volumes/DeBao_EDIT_01/08_From%20CG/20210121-2/DFN_0180_v002.mov</pathurl>
						<rate>
							<timebase>25</timebase>
						</rate>
						<duration>70</duration>
						<metadata>
							<storage>QuickTime</storage>
							<key>uk.co.thefoundry.Writer</key>
							<size>5</size>
							<type>UTF8</type>
							<value>mov64</value>
						</metadata>
						<metadata>
							<storage>QuickTime</storage>
							<key>uk.co.thefoundry.Application</key>
							<size>4</size>
							<type>UTF8</type>
							<value>Nuke</value>
						</metadata>
						<metadata>
							<storage>QuickTime</storage>
							<key>uk.co.thefoundry.ApplicationVersion</key>
							<size>6</size>
							<type>UTF8</type>
							<value>11.2v3</value>
						</metadata>
						<metadata>
							<storage>QuickTime</storage>
							<key>uk.co.thefoundry.YCbCrMatrix</key>
							<size>7</size>
							<type>UTF8</type>
							<value>Rec 709</value>
						</metadata>
						<metadata>
							<storage>QuickTime</storage>
							<key>uk.co.thefoundry.Colorspace</key>
							<size>4</size>
							<type>UTF8</type>
							<value>sRGB</value>
						</metadata>
						<media>
							<video>
								<duration>70</duration>
								<samplecharacteristics>
									<width>1920</width>
									<height>1080</height>
								</samplecharacteristics>
							</video>
						</media>
					</file>
					<sourcetrack>
						<mediatype>video</mediatype>
					</sourcetrack>
					<fielddominance>none</fielddominance>
					<itemhistory>
						<uuid>82A54E8E-CFA9-4C37-B21D-CCD563BF1851</uuid>
					</itemhistory>
				</clipitem>
				<clipitem id="DFN_0190_v002 ">
					<name>DFN_0190_v002</name>
					<duration>37</duration>
					<rate>
						<ntsc>FALSE</ntsc>
						<timebase>25</timebase>
					</rate>
					<in>0</in>
					<out>37</out>
					<start>1382</start>
					<end>1419</end>
					<pixelaspectratio>Square</pixelaspectratio>
					<anamorphic>FALSE</anamorphic>
					<alphatype>none</alphatype>
					<masterclipid>DFN_0190_v002 1</masterclipid>
					<logginginfo>
						<scene/>
						<shottake/>
						<lognote/>
						<good>FALSE</good>
					</logginginfo>
					<labels>
						<label2/>
					</labels>
					<comments>
						<mastercomment1/>
						<mastercomment2/>
						<mastercomment3/>
						<mastercomment4/>
					</comments>
					<file id="DFN_0190_v002 2">
						<name>DFN_0190_v002.mov</name>
						<pathurl>file://localhost/Volumes/DeBao_EDIT_01/08_From%20CG/20210121-2/DFN_0190_v002.mov</pathurl>
						<rate>
							<timebase>25</timebase>
						</rate>
						<duration>37</duration>
						<metadata>
							<storage>QuickTime</storage>
							<key>uk.co.thefoundry.Writer</key>
							<size>5</size>
							<type>UTF8</type>
							<value>mov64</value>
						</metadata>
						<metadata>
							<storage>QuickTime</storage>
							<key>uk.co.thefoundry.Application</key>
							<size>4</size>
							<type>UTF8</type>
							<value>Nuke</value>
						</metadata>
						<metadata>
							<storage>QuickTime</storage>
							<key>uk.co.thefoundry.ApplicationVersion</key>
							<size>6</size>
							<type>UTF8</type>
							<value>11.2v3</value>
						</metadata>
						<metadata>
							<storage>QuickTime</storage>
							<key>uk.co.thefoundry.YCbCrMatrix</key>
							<size>7</size>
							<type>UTF8</type>
							<value>Rec 709</value>
						</metadata>
						<metadata>
							<storage>QuickTime</storage>
							<key>uk.co.thefoundry.Colorspace</key>
							<size>4</size>
							<type>UTF8</type>
							<value>sRGB</value>
						</metadata>
						<media>
							<video>
								<duration>37</duration>
								<samplecharacteristics>
									<width>1920</width>
									<height>1080</height>
								</samplecharacteristics>
							</video>
						</media>
					</file>
					<sourcetrack>
						<mediatype>video</mediatype>
					</sourcetrack>
					<fielddominance>none</fielddominance>
					<itemhistory>
						<uuid>5E078E6C-495F-4E14-BD88-7EA75F23498A</uuid>
					</itemhistory>
				</clipitem>
				<clipitem id="DFN_0210_v005 ">
					<name>DFN_0210_v005</name>
					<duration>38</duration>
					<rate>
						<ntsc>FALSE</ntsc>
						<timebase>25</timebase>
					</rate>
					<in>0</in>
					<out>38</out>
					<start>1419</start>
					<end>1457</end>
					<pixelaspectratio>Square</pixelaspectratio>
					<anamorphic>FALSE</anamorphic>
					<alphatype>none</alphatype>
					<masterclipid>DFN_0210_v005 1</masterclipid>
					<logginginfo>
						<scene/>
						<shottake/>
						<lognote/>
						<good>FALSE</good>
					</logginginfo>
					<labels>
						<label2/>
					</labels>
					<comments>
						<mastercomment1/>
						<mastercomment2/>
						<mastercomment3/>
						<mastercomment4/>
					</comments>
					<file id="DFN_0210_v005 2">
						<name>DFN_0210_v005.mov</name>
						<pathurl>file://localhost/Volumes/DeBao_EDIT_01/08_From%20CG/20210121-2/DFN_0210_v005.mov</pathurl>
						<rate>
							<timebase>25</timebase>
						</rate>
						<duration>38</duration>
						<metadata>
							<storage>QuickTime</storage>
							<key>uk.co.thefoundry.Writer</key>
							<size>5</size>
							<type>UTF8</type>
							<value>mov64</value>
						</metadata>
						<metadata>
							<storage>QuickTime</storage>
							<key>uk.co.thefoundry.Application</key>
							<size>4</size>
							<type>UTF8</type>
							<value>Nuke</value>
						</metadata>
						<metadata>
							<storage>QuickTime</storage>
							<key>uk.co.thefoundry.ApplicationVersion</key>
							<size>6</size>
							<type>UTF8</type>
							<value>11.2v3</value>
						</metadata>
						<metadata>
							<storage>QuickTime</storage>
							<key>uk.co.thefoundry.YCbCrMatrix</key>
							<size>7</size>
							<type>UTF8</type>
							<value>Rec 709</value>
						</metadata>
						<metadata>
							<storage>QuickTime</storage>
							<key>uk.co.thefoundry.Colorspace</key>
							<size>4</size>
							<type>UTF8</type>
							<value>sRGB</value>
						</metadata>
						<media>
							<video>
								<duration>38</duration>
								<samplecharacteristics>
									<width>1920</width>
									<height>1080</height>
								</samplecharacteristics>
							</video>
						</media>
					</file>
					<sourcetrack>
						<mediatype>video</mediatype>
					</sourcetrack>
					<fielddominance>none</fielddominance>
					<itemhistory>
						<uuid>3A0AB770-589B-4D02-9FA9-B12089B88B4C</uuid>
					</itemhistory>
				</clipitem>
				<clipitem id="DXY_0040_v004 ">
					<name>DXY_0040_v004</name>
					<duration>37</duration>
					<rate>
						<ntsc>FALSE</ntsc>
						<timebase>25</timebase>
					</rate>
					<in>0</in>
					<out>37</out>
					<start>1457</start>
					<end>1494</end>
					<pixelaspectratio>Square</pixelaspectratio>
					<anamorphic>FALSE</anamorphic>
					<alphatype>none</alphatype>
					<masterclipid>DXY_0040_v004 1</masterclipid>
					<logginginfo>
						<scene/>
						<shottake/>
						<lognote/>
						<good>FALSE</good>
					</logginginfo>
					<labels>
						<label2/>
					</labels>
					<comments>
						<mastercomment1/>
						<mastercomment2/>
						<mastercomment3/>
						<mastercomment4/>
					</comments>
					<file id="DXY_0040_v004 2">
						<name>DXY_0040_v004.mov</name>
						<pathurl>file://localhost/Volumes/DeBao_EDIT_01/08_From%20CG/20210121-2/DXY_0040_v004.mov</pathurl>
						<rate>
							<timebase>25</timebase>
						</rate>
						<duration>37</duration>
						<metadata>
							<storage>QuickTime</storage>
							<key>uk.co.thefoundry.Writer</key>
							<size>5</size>
							<type>UTF8</type>
							<value>mov64</value>
						</metadata>
						<metadata>
							<storage>QuickTime</storage>
							<key>uk.co.thefoundry.Application</key>
							<size>4</size>
							<type>UTF8</type>
							<value>Nuke</value>
						</metadata>
						<metadata>
							<storage>QuickTime</storage>
							<key>uk.co.thefoundry.ApplicationVersion</key>
							<size>6</size>
							<type>UTF8</type>
							<value>11.1v1</value>
						</metadata>
						<metadata>
							<storage>QuickTime</storage>
							<key>uk.co.thefoundry.YCbCrMatrix</key>
							<size>7</size>
							<type>UTF8</type>
							<value>Rec 709</value>
						</metadata>
						<metadata>
							<storage>QuickTime</storage>
							<key>uk.co.thefoundry.Colorspace</key>
							<size>4</size>
							<type>UTF8</type>
							<value>sRGB</value>
						</metadata>
						<media>
							<video>
								<duration>37</duration>
								<samplecharacteristics>
									<width>1920</width>
									<height>1080</height>
								</samplecharacteristics>
							</video>
						</media>
					</file>
					<sourcetrack>
						<mediatype>video</mediatype>
					</sourcetrack>
					<fielddominance>none</fielddominance>
					<itemhistory>
						<uuid>A6CC6829-6308-416A-8640-DE103FBC9AE7</uuid>
					</itemhistory>
				</clipitem>
				<clipitem id="DXY_0250_v005 ">
					<name>DXY_0250_v005</name>
					<duration>66</duration>
					<rate>
						<ntsc>FALSE</ntsc>
						<timebase>25</timebase>
					</rate>
					<in>0</in>
					<out>66</out>
					<start>1494</start>
					<end>1560</end>
					<pixelaspectratio>Square</pixelaspectratio>
					<anamorphic>FALSE</anamorphic>
					<alphatype>none</alphatype>
					<masterclipid>DXY_0250_v005 1</masterclipid>
					<logginginfo>
						<scene/>
						<shottake/>
						<lognote/>
						<good>FALSE</good>
					</logginginfo>
					<labels>
						<label2/>
					</labels>
					<comments>
						<mastercomment1/>
						<mastercomment2/>
						<mastercomment3/>
						<mastercomment4/>
					</comments>
					<file id="DXY_0250_v005 2">
						<name>DXY_0250_v005.mov</name>
						<pathurl>file://localhost/Volumes/DeBao_EDIT_01/08_From%20CG/20210121-2/DXY_0250_v005.mov</pathurl>
						<rate>
							<timebase>25</timebase>
						</rate>
						<duration>66</duration>
						<metadata>
							<storage>QuickTime</storage>
							<key>uk.co.thefoundry.Writer</key>
							<size>5</size>
							<type>UTF8</type>
							<value>mov64</value>
						</metadata>
						<metadata>
							<storage>QuickTime</storage>
							<key>uk.co.thefoundry.Application</key>
							<size>4</size>
							<type>UTF8</type>
							<value>Nuke</value>
						</metadata>
						<metadata>
							<storage>QuickTime</storage>
							<key>uk.co.thefoundry.ApplicationVersion</key>
							<size>6</size>
							<type>UTF8</type>
							<value>11.2v3</value>
						</metadata>
						<metadata>
							<storage>QuickTime</storage>
							<key>uk.co.thefoundry.YCbCrMatrix</key>
							<size>7</size>
							<type>UTF8</type>
							<value>Rec 709</value>
						</metadata>
						<metadata>
							<storage>QuickTime</storage>
							<key>uk.co.thefoundry.Colorspace</key>
							<size>4</size>
							<type>UTF8</type>
							<value>sRGB</value>
						</metadata>
						<media>
							<video>
								<duration>66</duration>
								<samplecharacteristics>
									<width>1920</width>
									<height>1080</height>
								</samplecharacteristics>
							</video>
						</media>
					</file>
					<sourcetrack>
						<mediatype>video</mediatype>
					</sourcetrack>
					<fielddominance>none</fielddominance>
					<itemhistory>
						<uuid>F2FAA6FC-7FD6-4B10-890C-69C8ADA17E07</uuid>
					</itemhistory>
				</clipitem>
				<clipitem id="HBW_0440_v007 ">
					<name>HBW_0440_v007</name>
					<duration>51</duration>
					<rate>
						<ntsc>FALSE</ntsc>
						<timebase>25</timebase>
					</rate>
					<in>0</in>
					<out>51</out>
					<start>1560</start>
					<end>1611</end>
					<pixelaspectratio>Square</pixelaspectratio>
					<anamorphic>FALSE</anamorphic>
					<alphatype>none</alphatype>
					<masterclipid>HBW_0440_v007 1</masterclipid>
					<logginginfo>
						<scene/>
						<shottake/>
						<lognote/>
						<good>FALSE</good>
					</logginginfo>
					<labels>
						<label2/>
					</labels>
					<comments>
						<mastercomment1/>
						<mastercomment2/>
						<mastercomment3/>
						<mastercomment4/>
					</comments>
					<file id="HBW_0440_v007 2">
						<name>HBW_0440_v007.mov</name>
						<pathurl>file://localhost/Volumes/DeBao_EDIT_01/08_From%20CG/20210121-2/HBW_0440_v007.mov</pathurl>
						<rate>
							<timebase>25</timebase>
						</rate>
						<duration>51</duration>
						<metadata>
							<storage>QuickTime</storage>
							<key>uk.co.thefoundry.Writer</key>
							<size>5</size>
							<type>UTF8</type>
							<value>mov64</value>
						</metadata>
						<metadata>
							<storage>QuickTime</storage>
							<key>uk.co.thefoundry.Application</key>
							<size>4</size>
							<type>UTF8</type>
							<value>Nuke</value>
						</metadata>
						<metadata>
							<storage>QuickTime</storage>
							<key>uk.co.thefoundry.ApplicationVersion</key>
							<size>6</size>
							<type>UTF8</type>
							<value>11.1v1</value>
						</metadata>
						<metadata>
							<storage>QuickTime</storage>
							<key>uk.co.thefoundry.YCbCrMatrix</key>
							<size>7</size>
							<type>UTF8</type>
							<value>Rec 709</value>
						</metadata>
						<metadata>
							<storage>QuickTime</storage>
							<key>uk.co.thefoundry.Colorspace</key>
							<size>4</size>
							<type>UTF8</type>
							<value>sRGB</value>
						</metadata>
						<media>
							<video>
								<duration>51</duration>
								<samplecharacteristics>
									<width>1920</width>
									<height>1080</height>
								</samplecharacteristics>
							</video>
						</media>
					</file>
					<sourcetrack>
						<mediatype>video</mediatype>
					</sourcetrack>
					<fielddominance>none</fielddominance>
					<itemhistory>
						<uuid>4F36ECB9-200B-4C6D-809F-C12568BE8EC8</uuid>
					</itemhistory>
				</clipitem>
				<clipitem id="HBW_0500_v002 ">
					<name>HBW_0500_v002</name>
					<duration>74</duration>
					<rate>
						<ntsc>FALSE</ntsc>
						<timebase>25</timebase>
					</rate>
					<in>0</in>
					<out>74</out>
					<start>1611</start>
					<end>1685</end>
					<pixelaspectratio>Square</pixelaspectratio>
					<anamorphic>FALSE</anamorphic>
					<alphatype>none</alphatype>
					<masterclipid>HBW_0500_v002 1</masterclipid>
					<logginginfo>
						<scene/>
						<shottake/>
						<lognote/>
						<good>FALSE</good>
					</logginginfo>
					<labels>
						<label2/>
					</labels>
					<comments>
						<mastercomment1/>
						<mastercomment2/>
						<mastercomment3/>
						<mastercomment4/>
					</comments>
					<file id="HBW_0500_v002 2">
						<name>HBW_0500_v002.mov</name>
						<pathurl>file://localhost/Volumes/DeBao_EDIT_01/08_From%20CG/20210121-2/HBW_0500_v002.mov</pathurl>
						<rate>
							<timebase>25</timebase>
						</rate>
						<duration>74</duration>
						<metadata>
							<storage>QuickTime</storage>
							<key>uk.co.thefoundry.Writer</key>
							<size>5</size>
							<type>UTF8</type>
							<value>mov64</value>
						</metadata>
						<metadata>
							<storage>QuickTime</storage>
							<key>uk.co.thefoundry.Application</key>
							<size>4</size>
							<type>UTF8</type>
							<value>Nuke</value>
						</metadata>
						<metadata>
							<storage>QuickTime</storage>
							<key>uk.co.thefoundry.ApplicationVersion</key>
							<size>6</size>
							<type>UTF8</type>
							<value>11.3v4</value>
						</metadata>
						<metadata>
							<storage>QuickTime</storage>
							<key>uk.co.thefoundry.YCbCrMatrix</key>
							<size>7</size>
							<type>UTF8</type>
							<value>Rec 709</value>
						</metadata>
						<metadata>
							<storage>QuickTime</storage>
							<key>uk.co.thefoundry.Colorspace</key>
							<size>8</size>
							<type>UTF8</type>
							<value>Gamma2.2</value>
						</metadata>
						<media>
							<video>
								<duration>74</duration>
								<samplecharacteristics>
									<width>1920</width>
									<height>1080</height>
								</samplecharacteristics>
							</video>
						</media>
					</file>
					<sourcetrack>
						<mediatype>video</mediatype>
					</sourcetrack>
					<fielddominance>none</fielddominance>
					<itemhistory>
						<uuid>6AACDD88-064B-4E39-AC1D-4A008EF050C8</uuid>
					</itemhistory>
				</clipitem>
				<clipitem id="JHY_0060_v004 ">
					<name>JHY_0060_v004</name>
					<duration>36</duration>
					<rate>
						<ntsc>FALSE</ntsc>
						<timebase>25</timebase>
					</rate>
					<in>0</in>
					<out>36</out>
					<start>1685</start>
					<end>1721</end>
					<pixelaspectratio>Square</pixelaspectratio>
					<anamorphic>FALSE</anamorphic>
					<alphatype>none</alphatype>
					<masterclipid>JHY_0060_v004 1</masterclipid>
					<logginginfo>
						<scene/>
						<shottake/>
						<lognote/>
						<good>FALSE</good>
					</logginginfo>
					<labels>
						<label2/>
					</labels>
					<comments>
						<mastercomment1/>
						<mastercomment2/>
						<mastercomment3/>
						<mastercomment4/>
					</comments>
					<file id="JHY_0060_v004 2">
						<name>JHY_0060_v004.mov</name>
						<pathurl>file://localhost/Volumes/DeBao_EDIT_01/08_From%20CG/20210121-2/JHY_0060_v004.mov</pathurl>
						<rate>
							<timebase>25</timebase>
						</rate>
						<duration>36</duration>
						<metadata>
							<storage>QuickTime</storage>
							<key>uk.co.thefoundry.Writer</key>
							<size>5</size>
							<type>UTF8</type>
							<value>mov64</value>
						</metadata>
						<metadata>
							<storage>QuickTime</storage>
							<key>uk.co.thefoundry.Application</key>
							<size>4</size>
							<type>UTF8</type>
							<value>Nuke</value>
						</metadata>
						<metadata>
							<storage>QuickTime</storage>
							<key>uk.co.thefoundry.ApplicationVersion</key>
							<size>6</size>
							<type>UTF8</type>
							<value>11.2v5</value>
						</metadata>
						<metadata>
							<storage>QuickTime</storage>
							<key>uk.co.thefoundry.YCbCrMatrix</key>
							<size>7</size>
							<type>UTF8</type>
							<value>Rec 709</value>
						</metadata>
						<metadata>
							<storage>QuickTime</storage>
							<key>uk.co.thefoundry.Colorspace</key>
							<size>4</size>
							<type>UTF8</type>
							<value>sRGB</value>
						</metadata>
						<timecode>
							<rate>
								<timebase>25</timebase>
							</rate>
							<string>00:22:37:02</string>
							<frame>33927</frame>
							<displayformat>NDF</displayformat>
							<source>source</source>
						</timecode>
						<media>
							<video>
								<duration>36</duration>
								<samplecharacteristics>
									<width>1920</width>
									<height>1080</height>
								</samplecharacteristics>
							</video>
						</media>
					</file>
					<sourcetrack>
						<mediatype>video</mediatype>
					</sourcetrack>
					<fielddominance>none</fielddominance>
					<itemhistory>
						<uuid>2A2DB458-11CB-4AF2-ADB6-6EE87CE8ECB9</uuid>
					</itemhistory>
				</clipitem>
				<clipitem id="LZC_0130_v004 ">
					<name>LZC_0130_v004</name>
					<duration>114</duration>
					<rate>
						<ntsc>FALSE</ntsc>
						<timebase>25</timebase>
					</rate>
					<in>0</in>
					<out>114</out>
					<start>1721</start>
					<end>1835</end>
					<pixelaspectratio>Square</pixelaspectratio>
					<anamorphic>FALSE</anamorphic>
					<alphatype>none</alphatype>
					<masterclipid>LZC_0130_v004 1</masterclipid>
					<logginginfo>
						<scene/>
						<shottake/>
						<lognote/>
						<good>FALSE</good>
					</logginginfo>
					<labels>
						<label2/>
					</labels>
					<comments>
						<mastercomment1/>
						<mastercomment2/>
						<mastercomment3/>
						<mastercomment4/>
					</comments>
					<file id="LZC_0130_v004 2">
						<name>LZC_0130_v004.mov</name>
						<pathurl>file://localhost/Volumes/DeBao_EDIT_01/08_From%20CG/20210121-2/LZC_0130_v004.mov</pathurl>
						<rate>
							<timebase>25</timebase>
						</rate>
						<duration>114</duration>
						<metadata>
							<storage>QuickTime</storage>
							<key>uk.co.thefoundry.Writer</key>
							<size>5</size>
							<type>UTF8</type>
							<value>mov64</value>
						</metadata>
						<metadata>
							<storage>QuickTime</storage>
							<key>uk.co.thefoundry.Application</key>
							<size>4</size>
							<type>UTF8</type>
							<value>Nuke</value>
						</metadata>
						<metadata>
							<storage>QuickTime</storage>
							<key>uk.co.thefoundry.ApplicationVersion</key>
							<size>6</size>
							<type>UTF8</type>
							<value>11.1v1</value>
						</metadata>
						<metadata>
							<storage>QuickTime</storage>
							<key>uk.co.thefoundry.YCbCrMatrix</key>
							<size>7</size>
							<type>UTF8</type>
							<value>Rec 709</value>
						</metadata>
						<metadata>
							<storage>QuickTime</storage>
							<key>uk.co.thefoundry.Colorspace</key>
							<size>4</size>
							<type>UTF8</type>
							<value>sRGB</value>
						</metadata>
						<media>
							<video>
								<duration>114</duration>
								<samplecharacteristics>
									<width>1920</width>
									<height>1080</height>
								</samplecharacteristics>
							</video>
						</media>
					</file>
					<sourcetrack>
						<mediatype>video</mediatype>
					</sourcetrack>
					<fielddominance>none</fielddominance>
					<itemhistory>
						<uuid>F69EFBF4-6C07-44E3-93B6-9E71471B822B</uuid>
					</itemhistory>
				</clipitem>
				<clipitem id="LZC_0220_v004 ">
					<name>LZC_0220_v004</name>
					<duration>72</duration>
					<rate>
						<ntsc>FALSE</ntsc>
						<timebase>25</timebase>
					</rate>
					<in>0</in>
					<out>72</out>
					<start>1835</start>
					<end>1907</end>
					<pixelaspectratio>Square</pixelaspectratio>
					<anamorphic>FALSE</anamorphic>
					<alphatype>none</alphatype>
					<masterclipid>LZC_0220_v004 1</masterclipid>
					<logginginfo>
						<scene/>
						<shottake/>
						<lognote/>
						<good>FALSE</good>
					</logginginfo>
					<labels>
						<label2/>
					</labels>
					<comments>
						<mastercomment1/>
						<mastercomment2/>
						<mastercomment3/>
						<mastercomment4/>
					</comments>
					<file id="LZC_0220_v004 2">
						<name>LZC_0220_v004.mov</name>
						<pathurl>file://localhost/Volumes/DeBao_EDIT_01/08_From%20CG/20210121-2/LZC_0220_v004.mov</pathurl>
						<rate>
							<timebase>25</timebase>
						</rate>
						<duration>72</duration>
						<metadata>
							<storage>QuickTime</storage>
							<key>uk.co.thefoundry.Writer</key>
							<size>5</size>
							<type>UTF8</type>
							<value>mov64</value>
						</metadata>
						<metadata>
							<storage>QuickTime</storage>
							<key>uk.co.thefoundry.Application</key>
							<size>4</size>
							<type>UTF8</type>
							<value>Nuke</value>
						</metadata>
						<metadata>
							<storage>QuickTime</storage>
							<key>uk.co.thefoundry.ApplicationVersion</key>
							<size>6</size>
							<type>UTF8</type>
							<value>11.1v1</value>
						</metadata>
						<metadata>
							<storage>QuickTime</storage>
							<key>uk.co.thefoundry.YCbCrMatrix</key>
							<size>7</size>
							<type>UTF8</type>
							<value>Rec 709</value>
						</metadata>
						<metadata>
							<storage>QuickTime</storage>
							<key>uk.co.thefoundry.Colorspace</key>
							<size>4</size>
							<type>UTF8</type>
							<value>sRGB</value>
						</metadata>
						<media>
							<video>
								<duration>72</duration>
								<samplecharacteristics>
									<width>1920</width>
									<height>1080</height>
								</samplecharacteristics>
							</video>
						</media>
					</file>
					<sourcetrack>
						<mediatype>video</mediatype>
					</sourcetrack>
					<fielddominance>none</fielddominance>
					<itemhistory>
						<uuid>C4B8CE88-F29E-4CC1-974A-B29B49E81417</uuid>
					</itemhistory>
				</clipitem>
				<clipitem id="SHD_0013_v003 ">
					<name>SHD_0013_v003</name>
					<duration>186</duration>
					<rate>
						<ntsc>FALSE</ntsc>
						<timebase>25</timebase>
					</rate>
					<in>0</in>
					<out>186</out>
					<start>1907</start>
					<end>2093</end>
					<pixelaspectratio>Square</pixelaspectratio>
					<anamorphic>FALSE</anamorphic>
					<alphatype>none</alphatype>
					<masterclipid>SHD_0013_v003 1</masterclipid>
					<logginginfo>
						<scene/>
						<shottake/>
						<lognote/>
						<good>FALSE</good>
					</logginginfo>
					<labels>
						<label2/>
					</labels>
					<comments>
						<mastercomment1/>
						<mastercomment2/>
						<mastercomment3/>
						<mastercomment4/>
					</comments>
					<file id="SHD_0013_v003 2">
						<name>SHD_0013_v003.mov</name>
						<pathurl>file://localhost/Volumes/DeBao_EDIT_01/08_From%20CG/20210121-2/SHD_0013_v003.mov</pathurl>
						<rate>
							<timebase>25</timebase>
						</rate>
						<duration>186</duration>
						<metadata>
							<storage>QuickTime</storage>
							<key>uk.co.thefoundry.Writer</key>
							<size>5</size>
							<type>UTF8</type>
							<value>mov64</value>
						</metadata>
						<metadata>
							<storage>QuickTime</storage>
							<key>uk.co.thefoundry.Application</key>
							<size>4</size>
							<type>UTF8</type>
							<value>Nuke</value>
						</metadata>
						<metadata>
							<storage>QuickTime</storage>
							<key>uk.co.thefoundry.ApplicationVersion</key>
							<size>6</size>
							<type>UTF8</type>
							<value>11.3v4</value>
						</metadata>
						<metadata>
							<storage>QuickTime</storage>
							<key>uk.co.thefoundry.YCbCrMatrix</key>
							<size>7</size>
							<type>UTF8</type>
							<value>Rec 709</value>
						</metadata>
						<metadata>
							<storage>QuickTime</storage>
							<key>uk.co.thefoundry.Colorspace</key>
							<size>4</size>
							<type>UTF8</type>
							<value>sRGB</value>
						</metadata>
						<media>
							<video>
								<duration>186</duration>
								<samplecharacteristics>
									<width>1920</width>
									<height>1080</height>
								</samplecharacteristics>
							</video>
						</media>
					</file>
					<sourcetrack>
						<mediatype>video</mediatype>
					</sourcetrack>
					<fielddominance>none</fielddominance>
					<itemhistory>
						<uuid>FE6CC9D5-6B6A-4D9A-9DF1-F8C4F9CD3C01</uuid>
					</itemhistory>
				</clipitem>
				<clipitem id="SHD_0310_v009 ">
					<name>SHD_0310_v009</name>
					<duration>27</duration>
					<rate>
						<ntsc>FALSE</ntsc>
						<timebase>25</timebase>
					</rate>
					<in>0</in>
					<out>27</out>
					<start>2093</start>
					<end>2120</end>
					<pixelaspectratio>Square</pixelaspectratio>
					<anamorphic>FALSE</anamorphic>
					<alphatype>none</alphatype>
					<masterclipid>SHD_0310_v009 1</masterclipid>
					<logginginfo>
						<scene/>
						<shottake/>
						<lognote/>
						<good>FALSE</good>
					</logginginfo>
					<labels>
						<label2/>
					</labels>
					<comments>
						<mastercomment1/>
						<mastercomment2/>
						<mastercomment3/>
						<mastercomment4/>
					</comments>
					<file id="SHD_0310_v009 2">
						<name>SHD_0310_v009.mov</name>
						<pathurl>file://localhost/Volumes/DeBao_EDIT_01/08_From%20CG/20210121-2/SHD_0310_v009.mov</pathurl>
						<rate>
							<timebase>25</timebase>
						</rate>
						<duration>27</duration>
						<metadata>
							<storage>QuickTime</storage>
							<key>uk.co.thefoundry.Writer</key>
							<size>5</size>
							<type>UTF8</type>
							<value>mov64</value>
						</metadata>
						<metadata>
							<storage>QuickTime</storage>
							<key>uk.co.thefoundry.Application</key>
							<size>4</size>
							<type>UTF8</type>
							<value>Nuke</value>
						</metadata>
						<metadata>
							<storage>QuickTime</storage>
							<key>uk.co.thefoundry.ApplicationVersion</key>
							<size>6</size>
							<type>UTF8</type>
							<value>11.2v5</value>
						</metadata>
						<metadata>
							<storage>QuickTime</storage>
							<key>uk.co.thefoundry.YCbCrMatrix</key>
							<size>7</size>
							<type>UTF8</type>
							<value>Rec 709</value>
						</metadata>
						<metadata>
							<storage>QuickTime</storage>
							<key>uk.co.thefoundry.Colorspace</key>
							<size>4</size>
							<type>UTF8</type>
							<value>sRGB</value>
						</metadata>
						<timecode>
							<rate>
								<timebase>25</timebase>
							</rate>
							<string>02:21:22:04</string>
							<frame>212054</frame>
							<displayformat>NDF</displayformat>
							<source>source</source>
						</timecode>
						<media>
							<video>
								<duration>27</duration>
								<samplecharacteristics>
									<width>1920</width>
									<height>1080</height>
								</samplecharacteristics>
							</video>
						</media>
					</file>
					<sourcetrack>
						<mediatype>video</mediatype>
					</sourcetrack>
					<fielddominance>none</fielddominance>
					<itemhistory>
						<uuid>FDBBFD6F-B948-41A0-A21B-D31D0CD2C374</uuid>
					</itemhistory>
				</clipitem>
				<clipitem id="SHD_0450_v006 ">
					<name>SHD_0450_v006</name>
					<duration>107</duration>
					<rate>
						<ntsc>FALSE</ntsc>
						<timebase>25</timebase>
					</rate>
					<in>0</in>
					<out>107</out>
					<start>2120</start>
					<end>2227</end>
					<pixelaspectratio>Square</pixelaspectratio>
					<anamorphic>FALSE</anamorphic>
					<alphatype>none</alphatype>
					<masterclipid>SHD_0450_v006 1</masterclipid>
					<logginginfo>
						<scene/>
						<shottake/>
						<lognote/>
						<good>FALSE</good>
					</logginginfo>
					<labels>
						<label2/>
					</labels>
					<comments>
						<mastercomment1/>
						<mastercomment2/>
						<mastercomment3/>
						<mastercomment4/>
					</comments>
					<file id="SHD_0450_v006 2">
						<name>SHD_0450_v006.mov</name>
						<pathurl>file://localhost/Volumes/DeBao_EDIT_01/08_From%20CG/20210121-2/SHD_0450_v006.mov</pathurl>
						<rate>
							<timebase>25</timebase>
						</rate>
						<duration>107</duration>
						<metadata>
							<storage>QuickTime</storage>
							<key>uk.co.thefoundry.Writer</key>
							<size>5</size>
							<type>UTF8</type>
							<value>mov64</value>
						</metadata>
						<metadata>
							<storage>QuickTime</storage>
							<key>uk.co.thefoundry.Application</key>
							<size>4</size>
							<type>UTF8</type>
							<value>Nuke</value>
						</metadata>
						<metadata>
							<storage>QuickTime</storage>
							<key>uk.co.thefoundry.ApplicationVersion</key>
							<size>6</size>
							<type>UTF8</type>
							<value>11.3v4</value>
						</metadata>
						<metadata>
							<storage>QuickTime</storage>
							<key>uk.co.thefoundry.YCbCrMatrix</key>
							<size>7</size>
							<type>UTF8</type>
							<value>Rec 709</value>
						</metadata>
						<metadata>
							<storage>QuickTime</storage>
							<key>uk.co.thefoundry.Colorspace</key>
							<size>4</size>
							<type>UTF8</type>
							<value>sRGB</value>
						</metadata>
						<media>
							<video>
								<duration>107</duration>
								<samplecharacteristics>
									<width>1920</width>
									<height>1080</height>
								</samplecharacteristics>
							</video>
						</media>
					</file>
					<sourcetrack>
						<mediatype>video</mediatype>
					</sourcetrack>
					<fielddominance>none</fielddominance>
					<itemhistory>
						<uuid>64E2A637-9D50-48A0-B2F2-87A4BBC75975</uuid>
					</itemhistory>
				</clipitem>
				<clipitem id="SLS_0160_v013 ">
					<name>SLS_0160_v013</name>
					<duration>132</duration>
					<rate>
						<ntsc>FALSE</ntsc>
						<timebase>25</timebase>
					</rate>
					<in>0</in>
					<out>132</out>
					<start>2227</start>
					<end>2359</end>
					<pixelaspectratio>Square</pixelaspectratio>
					<anamorphic>FALSE</anamorphic>
					<alphatype>none</alphatype>
					<masterclipid>SLS_0160_v013 1</masterclipid>
					<logginginfo>
						<scene/>
						<shottake/>
						<lognote/>
						<good>FALSE</good>
					</logginginfo>
					<labels>
						<label2/>
					</labels>
					<comments>
						<mastercomment1/>
						<mastercomment2/>
						<mastercomment3/>
						<mastercomment4/>
					</comments>
					<file id="SLS_0160_v013 2">
						<name>SLS_0160_v013.mov</name>
						<pathurl>file://localhost/Volumes/DeBao_EDIT_01/08_From%20CG/20210121-2/SLS_0160_v013.mov</pathurl>
						<rate>
							<timebase>25</timebase>
						</rate>
						<duration>132</duration>
						<metadata>
							<storage>QuickTime</storage>
							<key>uk.co.thefoundry.Writer</key>
							<size>5</size>
							<type>UTF8</type>
							<value>mov64</value>
						</metadata>
						<metadata>
							<storage>QuickTime</storage>
							<key>uk.co.thefoundry.Application</key>
							<size>4</size>
							<type>UTF8</type>
							<value>Nuke</value>
						</metadata>
						<metadata>
							<storage>QuickTime</storage>
							<key>uk.co.thefoundry.ApplicationVersion</key>
							<size>6</size>
							<type>UTF8</type>
							<value>12.0v2</value>
						</metadata>
						<metadata>
							<storage>QuickTime</storage>
							<key>uk.co.thefoundry.YCbCrMatrix</key>
							<size>7</size>
							<type>UTF8</type>
							<value>Rec 709</value>
						</metadata>
						<metadata>
							<storage>QuickTime</storage>
							<key>uk.co.thefoundry.Colorspace</key>
							<size>4</size>
							<type>UTF8</type>
							<value>sRGB</value>
						</metadata>
						<media>
							<video>
								<duration>132</duration>
								<samplecharacteristics>
									<width>1920</width>
									<height>1080</height>
								</samplecharacteristics>
							</video>
						</media>
					</file>
					<sourcetrack>
						<mediatype>video</mediatype>
					</sourcetrack>
					<fielddominance>none</fielddominance>
					<itemhistory>
						<uuid>370A0709-2B29-4158-B364-C21825B7B79D</uuid>
					</itemhistory>
				</clipitem>
				<clipitem id="SLS_0200_v010 ">
					<name>SLS_0200_v010</name>
					<duration>350</duration>
					<rate>
						<ntsc>FALSE</ntsc>
						<timebase>25</timebase>
					</rate>
					<in>0</in>
					<out>350</out>
					<start>2359</start>
					<end>2709</end>
					<pixelaspectratio>Square</pixelaspectratio>
					<anamorphic>FALSE</anamorphic>
					<alphatype>none</alphatype>
					<masterclipid>SLS_0200_v010 1</masterclipid>
					<logginginfo>
						<scene/>
						<shottake/>
						<lognote/>
						<good>FALSE</good>
					</logginginfo>
					<labels>
						<label2/>
					</labels>
					<comments>
						<mastercomment1/>
						<mastercomment2/>
						<mastercomment3/>
						<mastercomment4/>
					</comments>
					<file id="SLS_0200_v010 2">
						<name>SLS_0200_v010.mov</name>
						<pathurl>file://localhost/Volumes/DeBao_EDIT_01/08_From%20CG/20210121-2/SLS_0200_v010.mov</pathurl>
						<rate>
							<timebase>25</timebase>
						</rate>
						<duration>350</duration>
						<metadata>
							<storage>QuickTime</storage>
							<key>uk.co.thefoundry.Writer</key>
							<size>5</size>
							<type>UTF8</type>
							<value>mov64</value>
						</metadata>
						<metadata>
							<storage>QuickTime</storage>
							<key>uk.co.thefoundry.Application</key>
							<size>4</size>
							<type>UTF8</type>
							<value>Nuke</value>
						</metadata>
						<metadata>
							<storage>QuickTime</storage>
							<key>uk.co.thefoundry.ApplicationVersion</key>
							<size>6</size>
							<type>UTF8</type>
							<value>12.0v2</value>
						</metadata>
						<metadata>
							<storage>QuickTime</storage>
							<key>uk.co.thefoundry.YCbCrMatrix</key>
							<size>7</size>
							<type>UTF8</type>
							<value>Rec 709</value>
						</metadata>
						<metadata>
							<storage>QuickTime</storage>
							<key>uk.co.thefoundry.Colorspace</key>
							<size>4</size>
							<type>UTF8</type>
							<value>sRGB</value>
						</metadata>
						<media>
							<video>
								<duration>350</duration>
								<samplecharacteristics>
									<width>1920</width>
									<height>1080</height>
								</samplecharacteristics>
							</video>
						</media>
					</file>
					<sourcetrack>
						<mediatype>video</mediatype>
					</sourcetrack>
					<fielddominance>none</fielddominance>
					<itemhistory>
						<uuid>69FD3EDB-BC97-4347-969D-3061784337E4</uuid>
					</itemhistory>
				</clipitem>
				<clipitem id="SLS_0210_v011 ">
					<name>SLS_0210_v011</name>
					<duration>146</duration>
					<rate>
						<ntsc>FALSE</ntsc>
						<timebase>25</timebase>
					</rate>
					<in>0</in>
					<out>146</out>
					<start>2709</start>
					<end>2855</end>
					<pixelaspectratio>Square</pixelaspectratio>
					<anamorphic>FALSE</anamorphic>
					<alphatype>none</alphatype>
					<masterclipid>SLS_0210_v011 1</masterclipid>
					<logginginfo>
						<scene/>
						<shottake/>
						<lognote/>
						<good>FALSE</good>
					</logginginfo>
					<labels>
						<label2/>
					</labels>
					<comments>
						<mastercomment1/>
						<mastercomment2/>
						<mastercomment3/>
						<mastercomment4/>
					</comments>
					<file id="SLS_0210_v011 2">
						<name>SLS_0210_v011.mov</name>
						<pathurl>file://localhost/Volumes/DeBao_EDIT_01/08_From%20CG/20210121-2/SLS_0210_v011.mov</pathurl>
						<rate>
							<timebase>25</timebase>
						</rate>
						<duration>146</duration>
						<metadata>
							<storage>QuickTime</storage>
							<key>uk.co.thefoundry.Writer</key>
							<size>5</size>
							<type>UTF8</type>
							<value>mov64</value>
						</metadata>
						<metadata>
							<storage>QuickTime</storage>
							<key>uk.co.thefoundry.Application</key>
							<size>4</size>
							<type>UTF8</type>
							<value>Nuke</value>
						</metadata>
						<metadata>
							<storage>QuickTime</storage>
							<key>uk.co.thefoundry.ApplicationVersion</key>
							<size>6</size>
							<type>UTF8</type>
							<value>12.0v2</value>
						</metadata>
						<metadata>
							<storage>QuickTime</storage>
							<key>uk.co.thefoundry.YCbCrMatrix</key>
							<size>7</size>
							<type>UTF8</type>
							<value>Rec 709</value>
						</metadata>
						<metadata>
							<storage>QuickTime</storage>
							<key>uk.co.thefoundry.Colorspace</key>
							<size>4</size>
							<type>UTF8</type>
							<value>sRGB</value>
						</metadata>
						<media>
							<video>
								<duration>146</duration>
								<samplecharacteristics>
									<width>1920</width>
									<height>1080</height>
								</samplecharacteristics>
							</video>
						</media>
					</file>
					<sourcetrack>
						<mediatype>video</mediatype>
					</sourcetrack>
					<fielddominance>none</fielddominance>
					<itemhistory>
						<uuid>8DD56736-169F-4FB4-94D7-D7409FC5B809</uuid>
					</itemhistory>
				</clipitem>
				<clipitem id="SLS_0300_v009 ">
					<name>SLS_0300_v009</name>
					<duration>42</duration>
					<rate>
						<ntsc>FALSE</ntsc>
						<timebase>25</timebase>
					</rate>
					<in>0</in>
					<out>42</out>
					<start>2855</start>
					<end>2897</end>
					<pixelaspectratio>Square</pixelaspectratio>
					<anamorphic>FALSE</anamorphic>
					<alphatype>none</alphatype>
					<masterclipid>SLS_0300_v009 1</masterclipid>
					<logginginfo>
						<scene/>
						<shottake/>
						<lognote/>
						<good>FALSE</good>
					</logginginfo>
					<labels>
						<label2/>
					</labels>
					<comments>
						<mastercomment1/>
						<mastercomment2/>
						<mastercomment3/>
						<mastercomment4/>
					</comments>
					<file id="SLS_0300_v009 2">
						<name>SLS_0300_v009.mov</name>
						<pathurl>file://localhost/Volumes/DeBao_EDIT_01/08_From%20CG/20210121-2/SLS_0300_v009.mov</pathurl>
						<rate>
							<timebase>25</timebase>
						</rate>
						<duration>42</duration>
						<metadata>
							<storage>QuickTime</storage>
							<key>uk.co.thefoundry.Writer</key>
							<size>5</size>
							<type>UTF8</type>
							<value>mov64</value>
						</metadata>
						<metadata>
							<storage>QuickTime</storage>
							<key>uk.co.thefoundry.Application</key>
							<size>4</size>
							<type>UTF8</type>
							<value>Nuke</value>
						</metadata>
						<metadata>
							<storage>QuickTime</storage>
							<key>uk.co.thefoundry.ApplicationVersion</key>
							<size>6</size>
							<type>UTF8</type>
							<value>12.0v2</value>
						</metadata>
						<metadata>
							<storage>QuickTime</storage>
							<key>uk.co.thefoundry.YCbCrMatrix</key>
							<size>7</size>
							<type>UTF8</type>
							<value>Rec 709</value>
						</metadata>
						<metadata>
							<storage>QuickTime</storage>
							<key>uk.co.thefoundry.Colorspace</key>
							<size>4</size>
							<type>UTF8</type>
							<value>sRGB</value>
						</metadata>
						<media>
							<video>
								<duration>42</duration>
								<samplecharacteristics>
									<width>1920</width>
									<height>1080</height>
								</samplecharacteristics>
							</video>
						</media>
					</file>
					<sourcetrack>
						<mediatype>video</mediatype>
					</sourcetrack>
					<fielddominance>none</fielddominance>
					<itemhistory>
						<uuid>73C625F2-C6C0-4643-84F8-DF72C0B288B8</uuid>
					</itemhistory>
				</clipitem>
				<clipitem id="SLS_0510_v008 ">
					<name>SLS_0510_v008</name>
					<duration>114</duration>
					<rate>
						<ntsc>FALSE</ntsc>
						<timebase>25</timebase>
					</rate>
					<in>0</in>
					<out>114</out>
					<start>2897</start>
					<end>3011</end>
					<pixelaspectratio>Square</pixelaspectratio>
					<anamorphic>FALSE</anamorphic>
					<alphatype>none</alphatype>
					<masterclipid>SLS_0510_v008 1</masterclipid>
					<logginginfo>
						<scene/>
						<shottake/>
						<lognote/>
						<good>FALSE</good>
					</logginginfo>
					<labels>
						<label2/>
					</labels>
					<comments>
						<mastercomment1/>
						<mastercomment2/>
						<mastercomment3/>
						<mastercomment4/>
					</comments>
					<file id="SLS_0510_v008 2">
						<name>SLS_0510_v008.mov</name>
						<pathurl>file://localhost/Volumes/DeBao_EDIT_01/08_From%20CG/20210121-2/SLS_0510_v008.mov</pathurl>
						<rate>
							<timebase>25</timebase>
						</rate>
						<duration>114</duration>
						<metadata>
							<storage>QuickTime</storage>
							<key>uk.co.thefoundry.Writer</key>
							<size>5</size>
							<type>UTF8</type>
							<value>mov64</value>
						</metadata>
						<metadata>
							<storage>QuickTime</storage>
							<key>uk.co.thefoundry.Application</key>
							<size>4</size>
							<type>UTF8</type>
							<value>Nuke</value>
						</metadata>
						<metadata>
							<storage>QuickTime</storage>
							<key>uk.co.thefoundry.ApplicationVersion</key>
							<size>6</size>
							<type>UTF8</type>
							<value>12.0v2</value>
						</metadata>
						<metadata>
							<storage>QuickTime</storage>
							<key>uk.co.thefoundry.YCbCrMatrix</key>
							<size>7</size>
							<type>UTF8</type>
							<value>Rec 709</value>
						</metadata>
						<metadata>
							<storage>QuickTime</storage>
							<key>uk.co.thefoundry.Colorspace</key>
							<size>4</size>
							<type>UTF8</type>
							<value>sRGB</value>
						</metadata>
						<media>
							<video>
								<duration>114</duration>
								<samplecharacteristics>
									<width>1920</width>
									<height>1080</height>
								</samplecharacteristics>
							</video>
						</media>
					</file>
					<sourcetrack>
						<mediatype>video</mediatype>
					</sourcetrack>
					<fielddominance>none</fielddominance>
					<itemhistory>
						<uuid>93A21E41-4234-4E82-9EC6-4FDA9D458A02</uuid>
					</itemhistory>
				</clipitem>
				<clipitem id="SLS_0610_v005 ">
					<name>SLS_0610_v005</name>
					<duration>76</duration>
					<rate>
						<ntsc>FALSE</ntsc>
						<timebase>25</timebase>
					</rate>
					<in>0</in>
					<out>76</out>
					<start>3011</start>
					<end>3087</end>
					<pixelaspectratio>Square</pixelaspectratio>
					<anamorphic>FALSE</anamorphic>
					<alphatype>none</alphatype>
					<masterclipid>SLS_0610_v005 1</masterclipid>
					<logginginfo>
						<scene/>
						<shottake/>
						<lognote/>
						<good>FALSE</good>
					</logginginfo>
					<labels>
						<label2/>
					</labels>
					<comments>
						<mastercomment1/>
						<mastercomment2/>
						<mastercomment3/>
						<mastercomment4/>
					</comments>
					<file id="SLS_0610_v005 2">
						<name>SLS_0610_v005.mov</name>
						<pathurl>file://localhost/Volumes/DeBao_EDIT_01/08_From%20CG/20210121-2/SLS_0610_v005.mov</pathurl>
						<rate>
							<timebase>25</timebase>
						</rate>
						<duration>76</duration>
						<metadata>
							<storage>QuickTime</storage>
							<key>uk.co.thefoundry.Writer</key>
							<size>5</size>
							<type>UTF8</type>
							<value>mov64</value>
						</metadata>
						<metadata>
							<storage>QuickTime</storage>
							<key>uk.co.thefoundry.Application</key>
							<size>4</size>
							<type>UTF8</type>
							<value>Nuke</value>
						</metadata>
						<metadata>
							<storage>QuickTime</storage>
							<key>uk.co.thefoundry.ApplicationVersion</key>
							<size>6</size>
							<type>UTF8</type>
							<value>12.0v2</value>
						</metadata>
						<metadata>
							<storage>QuickTime</storage>
							<key>uk.co.thefoundry.YCbCrMatrix</key>
							<size>7</size>
							<type>UTF8</type>
							<value>Rec 709</value>
						</metadata>
						<metadata>
							<storage>QuickTime</storage>
							<key>uk.co.thefoundry.Colorspace</key>
							<size>4</size>
							<type>UTF8</type>
							<value>sRGB</value>
						</metadata>
						<media>
							<video>
								<duration>76</duration>
								<samplecharacteristics>
									<width>1920</width>
									<height>1080</height>
								</samplecharacteristics>
							</video>
						</media>
					</file>
					<sourcetrack>
						<mediatype>video</mediatype>
					</sourcetrack>
					<fielddominance>none</fielddominance>
					<itemhistory>
						<uuid>1ACEA9C7-D831-4335-AF8C-642A50D5DA0E</uuid>
					</itemhistory>
				</clipitem>
				<clipitem id="SLS_0720_v002 ">
					<name>SLS_0720_v002</name>
					<duration>177</duration>
					<rate>
						<ntsc>FALSE</ntsc>
						<timebase>25</timebase>
					</rate>
					<in>0</in>
					<out>177</out>
					<start>3087</start>
					<end>3264</end>
					<pixelaspectratio>Square</pixelaspectratio>
					<anamorphic>FALSE</anamorphic>
					<alphatype>none</alphatype>
					<masterclipid>SLS_0720_v002 1</masterclipid>
					<logginginfo>
						<scene/>
						<shottake/>
						<lognote/>
						<good>FALSE</good>
					</logginginfo>
					<labels>
						<label2/>
					</labels>
					<comments>
						<mastercomment1/>
						<mastercomment2/>
						<mastercomment3/>
						<mastercomment4/>
					</comments>
					<file id="SLS_0720_v002 2">
						<name>SLS_0720_v002.mov</name>
						<pathurl>file://localhost/Volumes/DeBao_EDIT_01/08_From%20CG/20210121-2/SLS_0720_v002.mov</pathurl>
						<rate>
							<timebase>25</timebase>
						</rate>
						<duration>177</duration>
						<metadata>
							<storage>QuickTime</storage>
							<key>uk.co.thefoundry.Writer</key>
							<size>5</size>
							<type>UTF8</type>
							<value>mov64</value>
						</metadata>
						<metadata>
							<storage>QuickTime</storage>
							<key>uk.co.thefoundry.Application</key>
							<size>4</size>
							<type>UTF8</type>
							<value>Nuke</value>
						</metadata>
						<metadata>
							<storage>QuickTime</storage>
							<key>uk.co.thefoundry.ApplicationVersion</key>
							<size>6</size>
							<type>UTF8</type>
							<value>12.0v2</value>
						</metadata>
						<metadata>
							<storage>QuickTime</storage>
							<key>uk.co.thefoundry.YCbCrMatrix</key>
							<size>7</size>
							<type>UTF8</type>
							<value>Rec 709</value>
						</metadata>
						<metadata>
							<storage>QuickTime</storage>
							<key>uk.co.thefoundry.Colorspace</key>
							<size>4</size>
							<type>UTF8</type>
							<value>sRGB</value>
						</metadata>
						<media>
							<video>
								<duration>177</duration>
								<samplecharacteristics>
									<width>1920</width>
									<height>1080</height>
								</samplecharacteristics>
							</video>
						</media>
					</file>
					<sourcetrack>
						<mediatype>video</mediatype>
					</sourcetrack>
					<fielddominance>none</fielddominance>
					<itemhistory>
						<uuid>F69E4AFB-F822-4CF1-AE6C-EAB2E86016FF</uuid>
					</itemhistory>
				</clipitem>
				<clipitem id="SLS_1190_v002 ">
					<name>SLS_1190_v002</name>
					<duration>13</duration>
					<rate>
						<ntsc>FALSE</ntsc>
						<timebase>25</timebase>
					</rate>
					<in>0</in>
					<out>13</out>
					<start>3264</start>
					<end>3277</end>
					<pixelaspectratio>Square</pixelaspectratio>
					<anamorphic>FALSE</anamorphic>
					<alphatype>none</alphatype>
					<masterclipid>SLS_1190_v002 1</masterclipid>
					<logginginfo>
						<scene/>
						<shottake/>
						<lognote/>
						<good>FALSE</good>
					</logginginfo>
					<labels>
						<label2/>
					</labels>
					<comments>
						<mastercomment1/>
						<mastercomment2/>
						<mastercomment3/>
						<mastercomment4/>
					</comments>
					<file id="SLS_1190_v002 2">
						<name>SLS_1190_v002.mov</name>
						<pathurl>file://localhost/Volumes/DeBao_EDIT_01/08_From%20CG/20210121-2/SLS_1190_v002.mov</pathurl>
						<rate>
							<timebase>25</timebase>
						</rate>
						<duration>13</duration>
						<metadata>
							<storage>QuickTime</storage>
							<key>uk.co.thefoundry.Writer</key>
							<size>5</size>
							<type>UTF8</type>
							<value>mov64</value>
						</metadata>
						<metadata>
							<storage>QuickTime</storage>
							<key>uk.co.thefoundry.Application</key>
							<size>4</size>
							<type>UTF8</type>
							<value>Nuke</value>
						</metadata>
						<metadata>
							<storage>QuickTime</storage>
							<key>uk.co.thefoundry.ApplicationVersion</key>
							<size>6</size>
							<type>UTF8</type>
							<value>12.0v2</value>
						</metadata>
						<metadata>
							<storage>QuickTime</storage>
							<key>uk.co.thefoundry.YCbCrMatrix</key>
							<size>7</size>
							<type>UTF8</type>
							<value>Rec 709</value>
						</metadata>
						<metadata>
							<storage>QuickTime</storage>
							<key>uk.co.thefoundry.Colorspace</key>
							<size>4</size>
							<type>UTF8</type>
							<value>sRGB</value>
						</metadata>
						<media>
							<video>
								<duration>13</duration>
								<samplecharacteristics>
									<width>1920</width>
									<height>1080</height>
								</samplecharacteristics>
							</video>
						</media>
					</file>
					<sourcetrack>
						<mediatype>video</mediatype>
					</sourcetrack>
					<fielddominance>none</fielddominance>
					<itemhistory>
						<uuid>1F7051DF-FAD7-43C9-B679-8A82C5AE6FAE</uuid>
					</itemhistory>
				</clipitem>
				<clipitem id="SLS_1210_v002 ">
					<name>SLS_1210_v002</name>
					<duration>18</duration>
					<rate>
						<ntsc>FALSE</ntsc>
						<timebase>25</timebase>
					</rate>
					<in>0</in>
					<out>18</out>
					<start>3277</start>
					<end>3295</end>
					<pixelaspectratio>Square</pixelaspectratio>
					<anamorphic>FALSE</anamorphic>
					<alphatype>none</alphatype>
					<masterclipid>SLS_1210_v002 1</masterclipid>
					<logginginfo>
						<scene/>
						<shottake/>
						<lognote/>
						<good>FALSE</good>
					</logginginfo>
					<labels>
						<label2/>
					</labels>
					<comments>
						<mastercomment1/>
						<mastercomment2/>
						<mastercomment3/>
						<mastercomment4/>
					</comments>
					<file id="SLS_1210_v002 2">
						<name>SLS_1210_v002.mov</name>
						<pathurl>file://localhost/Volumes/DeBao_EDIT_01/08_From%20CG/20210121-2/SLS_1210_v002.mov</pathurl>
						<rate>
							<timebase>25</timebase>
						</rate>
						<duration>18</duration>
						<metadata>
							<storage>QuickTime</storage>
							<key>uk.co.thefoundry.Writer</key>
							<size>5</size>
							<type>UTF8</type>
							<value>mov64</value>
						</metadata>
						<metadata>
							<storage>QuickTime</storage>
							<key>uk.co.thefoundry.Application</key>
							<size>4</size>
							<type>UTF8</type>
							<value>Nuke</value>
						</metadata>
						<metadata>
							<storage>QuickTime</storage>
							<key>uk.co.thefoundry.ApplicationVersion</key>
							<size>6</size>
							<type>UTF8</type>
							<value>12.0v2</value>
						</metadata>
						<metadata>
							<storage>QuickTime</storage>
							<key>uk.co.thefoundry.YCbCrMatrix</key>
							<size>7</size>
							<type>UTF8</type>
							<value>Rec 709</value>
						</metadata>
						<metadata>
							<storage>QuickTime</storage>
							<key>uk.co.thefoundry.Colorspace</key>
							<size>4</size>
							<type>UTF8</type>
							<value>sRGB</value>
						</metadata>
						<media>
							<video>
								<duration>18</duration>
								<samplecharacteristics>
									<width>1920</width>
									<height>1080</height>
								</samplecharacteristics>
							</video>
						</media>
					</file>
					<sourcetrack>
						<mediatype>video</mediatype>
					</sourcetrack>
					<fielddominance>none</fielddominance>
					<itemhistory>
						<uuid>13C91EEE-6D2B-4C3C-A230-CF6CE81F712A</uuid>
					</itemhistory>
				</clipitem>
				<clipitem id="SLS_1240_v002 ">
					<name>SLS_1240_v002</name>
					<duration>48</duration>
					<rate>
						<ntsc>FALSE</ntsc>
						<timebase>25</timebase>
					</rate>
					<in>0</in>
					<out>48</out>
					<start>3295</start>
					<end>3343</end>
					<pixelaspectratio>Square</pixelaspectratio>
					<anamorphic>FALSE</anamorphic>
					<alphatype>none</alphatype>
					<masterclipid>SLS_1240_v002 1</masterclipid>
					<logginginfo>
						<scene/>
						<shottake/>
						<lognote/>
						<good>FALSE</good>
					</logginginfo>
					<labels>
						<label2/>
					</labels>
					<comments>
						<mastercomment1/>
						<mastercomment2/>
						<mastercomment3/>
						<mastercomment4/>
					</comments>
					<file id="SLS_1240_v002 2">
						<name>SLS_1240_v002.mov</name>
						<pathurl>file://localhost/Volumes/DeBao_EDIT_01/08_From%20CG/20210121-2/SLS_1240_v002.mov</pathurl>
						<rate>
							<timebase>25</timebase>
						</rate>
						<duration>48</duration>
						<metadata>
							<storage>QuickTime</storage>
							<key>uk.co.thefoundry.Writer</key>
							<size>5</size>
							<type>UTF8</type>
							<value>mov64</value>
						</metadata>
						<metadata>
							<storage>QuickTime</storage>
							<key>uk.co.thefoundry.Application</key>
							<size>4</size>
							<type>UTF8</type>
							<value>Nuke</value>
						</metadata>
						<metadata>
							<storage>QuickTime</storage>
							<key>uk.co.thefoundry.ApplicationVersion</key>
							<size>6</size>
							<type>UTF8</type>
							<value>12.0v2</value>
						</metadata>
						<metadata>
							<storage>QuickTime</storage>
							<key>uk.co.thefoundry.YCbCrMatrix</key>
							<size>7</size>
							<type>UTF8</type>
							<value>Rec 709</value>
						</metadata>
						<metadata>
							<storage>QuickTime</storage>
							<key>uk.co.thefoundry.Colorspace</key>
							<size>4</size>
							<type>UTF8</type>
							<value>sRGB</value>
						</metadata>
						<media>
							<video>
								<duration>48</duration>
								<samplecharacteristics>
									<width>1920</width>
									<height>1080</height>
								</samplecharacteristics>
							</video>
						</media>
					</file>
					<sourcetrack>
						<mediatype>video</mediatype>
					</sourcetrack>
					<fielddominance>none</fielddominance>
					<itemhistory>
						<uuid>0BFD7DE8-F39A-42ED-A281-AEE666E069D7</uuid>
					</itemhistory>
				</clipitem>
				<clipitem id="SLS_1400_v003 ">
					<name>SLS_1400_v003</name>
					<duration>17</duration>
					<rate>
						<ntsc>FALSE</ntsc>
						<timebase>25</timebase>
					</rate>
					<in>0</in>
					<out>17</out>
					<start>3343</start>
					<end>3360</end>
					<pixelaspectratio>Square</pixelaspectratio>
					<anamorphic>FALSE</anamorphic>
					<alphatype>none</alphatype>
					<masterclipid>SLS_1400_v003 1</masterclipid>
					<logginginfo>
						<scene/>
						<shottake/>
						<lognote/>
						<good>FALSE</good>
					</logginginfo>
					<labels>
						<label2/>
					</labels>
					<comments>
						<mastercomment1/>
						<mastercomment2/>
						<mastercomment3/>
						<mastercomment4/>
					</comments>
					<file id="SLS_1400_v003 2">
						<name>SLS_1400_v003.mov</name>
						<pathurl>file://localhost/Volumes/DeBao_EDIT_01/08_From%20CG/20210121-2/SLS_1400_v003.mov</pathurl>
						<rate>
							<timebase>25</timebase>
						</rate>
						<duration>17</duration>
						<metadata>
							<storage>QuickTime</storage>
							<key>uk.co.thefoundry.Writer</key>
							<size>5</size>
							<type>UTF8</type>
							<value>mov64</value>
						</metadata>
						<metadata>
							<storage>QuickTime</storage>
							<key>uk.co.thefoundry.Application</key>
							<size>4</size>
							<type>UTF8</type>
							<value>Nuke</value>
						</metadata>
						<metadata>
							<storage>QuickTime</storage>
							<key>uk.co.thefoundry.ApplicationVersion</key>
							<size>6</size>
							<type>UTF8</type>
							<value>12.0v2</value>
						</metadata>
						<metadata>
							<storage>QuickTime</storage>
							<key>uk.co.thefoundry.YCbCrMatrix</key>
							<size>7</size>
							<type>UTF8</type>
							<value>Rec 709</value>
						</metadata>
						<metadata>
							<storage>QuickTime</storage>
							<key>uk.co.thefoundry.Colorspace</key>
							<size>4</size>
							<type>UTF8</type>
							<value>sRGB</value>
						</metadata>
						<media>
							<video>
								<duration>17</duration>
								<samplecharacteristics>
									<width>1920</width>
									<height>1080</height>
								</samplecharacteristics>
							</video>
						</media>
					</file>
					<sourcetrack>
						<mediatype>video</mediatype>
					</sourcetrack>
					<fielddominance>none</fielddominance>
					<itemhistory>
						<uuid>B57E8297-9066-4528-9C73-542E3ACD56BB</uuid>
					</itemhistory>
				</clipitem>
				<clipitem id="SLS_1470_v003 ">
					<name>SLS_1470_v003</name>
					<duration>148</duration>
					<rate>
						<ntsc>FALSE</ntsc>
						<timebase>25</timebase>
					</rate>
					<in>0</in>
					<out>148</out>
					<start>3360</start>
					<end>3508</end>
					<pixelaspectratio>Square</pixelaspectratio>
					<anamorphic>FALSE</anamorphic>
					<alphatype>none</alphatype>
					<masterclipid>SLS_1470_v003 1</masterclipid>
					<logginginfo>
						<scene/>
						<shottake/>
						<lognote/>
						<good>FALSE</good>
					</logginginfo>
					<labels>
						<label2/>
					</labels>
					<comments>
						<mastercomment1/>
						<mastercomment2/>
						<mastercomment3/>
						<mastercomment4/>
					</comments>
					<file id="SLS_1470_v003 2">
						<name>SLS_1470_v003.mov</name>
						<pathurl>file://localhost/Volumes/DeBao_EDIT_01/08_From%20CG/20210121-2/SLS_1470_v003.mov</pathurl>
						<rate>
							<timebase>25</timebase>
						</rate>
						<duration>148</duration>
						<metadata>
							<storage>QuickTime</storage>
							<key>uk.co.thefoundry.Writer</key>
							<size>5</size>
							<type>UTF8</type>
							<value>mov64</value>
						</metadata>
						<metadata>
							<storage>QuickTime</storage>
							<key>uk.co.thefoundry.Application</key>
							<size>4</size>
							<type>UTF8</type>
							<value>Nuke</value>
						</metadata>
						<metadata>
							<storage>QuickTime</storage>
							<key>uk.co.thefoundry.ApplicationVersion</key>
							<size>6</size>
							<type>UTF8</type>
							<value>12.0v2</value>
						</metadata>
						<metadata>
							<storage>QuickTime</storage>
							<key>uk.co.thefoundry.YCbCrMatrix</key>
							<size>7</size>
							<type>UTF8</type>
							<value>Rec 709</value>
						</metadata>
						<metadata>
							<storage>QuickTime</storage>
							<key>uk.co.thefoundry.Colorspace</key>
							<size>4</size>
							<type>UTF8</type>
							<value>sRGB</value>
						</metadata>
						<media>
							<video>
								<duration>148</duration>
								<samplecharacteristics>
									<width>1920</width>
									<height>1080</height>
								</samplecharacteristics>
							</video>
						</media>
					</file>
					<sourcetrack>
						<mediatype>video</mediatype>
					</sourcetrack>
					<fielddominance>none</fielddominance>
					<itemhistory>
						<uuid>548AA8DE-E57D-4C61-9E59-25E78EE13F8E</uuid>
					</itemhistory>
				</clipitem>
				<clipitem id="SLS_1840_v006 ">
					<name>SLS_1840_v006</name>
					<duration>475</duration>
					<rate>
						<ntsc>FALSE</ntsc>
						<timebase>25</timebase>
					</rate>
					<in>0</in>
					<out>475</out>
					<start>3508</start>
					<end>3983</end>
					<pixelaspectratio>Square</pixelaspectratio>
					<anamorphic>FALSE</anamorphic>
					<alphatype>none</alphatype>
					<masterclipid>SLS_1840_v006 1</masterclipid>
					<logginginfo>
						<scene/>
						<shottake/>
						<lognote/>
						<good>FALSE</good>
					</logginginfo>
					<labels>
						<label2/>
					</labels>
					<comments>
						<mastercomment1/>
						<mastercomment2/>
						<mastercomment3/>
						<mastercomment4/>
					</comments>
					<file id="SLS_1840_v006 2">
						<name>SLS_1840_v006.mov</name>
						<pathurl>file://localhost/Volumes/DeBao_EDIT_01/08_From%20CG/20210121-2/SLS_1840_v006.mov</pathurl>
						<rate>
							<timebase>25</timebase>
						</rate>
						<duration>475</duration>
						<metadata>
							<storage>QuickTime</storage>
							<key>uk.co.thefoundry.Writer</key>
							<size>5</size>
							<type>UTF8</type>
							<value>mov64</value>
						</metadata>
						<metadata>
							<storage>QuickTime</storage>
							<key>uk.co.thefoundry.Application</key>
							<size>4</size>
							<type>UTF8</type>
							<value>Nuke</value>
						</metadata>
						<metadata>
							<storage>QuickTime</storage>
							<key>uk.co.thefoundry.ApplicationVersion</key>
							<size>6</size>
							<type>UTF8</type>
							<value>12.0v2</value>
						</metadata>
						<metadata>
							<storage>QuickTime</storage>
							<key>uk.co.thefoundry.YCbCrMatrix</key>
							<size>7</size>
							<type>UTF8</type>
							<value>Rec 709</value>
						</metadata>
						<metadata>
							<storage>QuickTime</storage>
							<key>uk.co.thefoundry.Colorspace</key>
							<size>4</size>
							<type>UTF8</type>
							<value>sRGB</value>
						</metadata>
						<media>
							<video>
								<duration>475</duration>
								<samplecharacteristics>
									<width>1920</width>
									<height>1080</height>
								</samplecharacteristics>
							</video>
						</media>
					</file>
					<sourcetrack>
						<mediatype>video</mediatype>
					</sourcetrack>
					<fielddominance>none</fielddominance>
					<itemhistory>
						<uuid>0930462C-1ADB-4F1D-943D-2FA9FA0520DF</uuid>
					</itemhistory>
				</clipitem>
				<clipitem id="SLS_2075_v009 ">
					<name>SLS_2075_v009</name>
					<duration>498</duration>
					<rate>
						<ntsc>FALSE</ntsc>
						<timebase>25</timebase>
					</rate>
					<in>0</in>
					<out>498</out>
					<start>3983</start>
					<end>4481</end>
					<pixelaspectratio>Square</pixelaspectratio>
					<anamorphic>FALSE</anamorphic>
					<alphatype>none</alphatype>
					<masterclipid>SLS_2075_v009 1</masterclipid>
					<logginginfo>
						<scene/>
						<shottake/>
						<lognote/>
						<good>FALSE</good>
					</logginginfo>
					<labels>
						<label2/>
					</labels>
					<comments>
						<mastercomment1/>
						<mastercomment2/>
						<mastercomment3/>
						<mastercomment4/>
					</comments>
					<file id="SLS_2075_v009 2">
						<name>SLS_2075_v009.mov</name>
						<pathurl>file://localhost/Volumes/DeBao_EDIT_01/08_From%20CG/20210121-2/SLS_2075_v009.mov</pathurl>
						<rate>
							<timebase>25</timebase>
						</rate>
						<duration>498</duration>
						<metadata>
							<storage>QuickTime</storage>
							<key>uk.co.thefoundry.Writer</key>
							<size>5</size>
							<type>UTF8</type>
							<value>mov64</value>
						</metadata>
						<metadata>
							<storage>QuickTime</storage>
							<key>uk.co.thefoundry.Application</key>
							<size>4</size>
							<type>UTF8</type>
							<value>Nuke</value>
						</metadata>
						<metadata>
							<storage>QuickTime</storage>
							<key>uk.co.thefoundry.ApplicationVersion</key>
							<size>6</size>
							<type>UTF8</type>
							<value>12.0v2</value>
						</metadata>
						<metadata>
							<storage>QuickTime</storage>
							<key>uk.co.thefoundry.YCbCrMatrix</key>
							<size>7</size>
							<type>UTF8</type>
							<value>Rec 709</value>
						</metadata>
						<metadata>
							<storage>QuickTime</storage>
							<key>uk.co.thefoundry.Colorspace</key>
							<size>4</size>
							<type>UTF8</type>
							<value>sRGB</value>
						</metadata>
						<media>
							<video>
								<duration>498</duration>
								<samplecharacteristics>
									<width>1920</width>
									<height>1080</height>
								</samplecharacteristics>
							</video>
						</media>
					</file>
					<sourcetrack>
						<mediatype>video</mediatype>
					</sourcetrack>
					<fielddominance>none</fielddominance>
					<itemhistory>
						<uuid>EE7ED8CA-7EF5-41E0-88B1-3F1A870AE78C</uuid>
					</itemhistory>
				</clipitem>
				<clipitem id="SLS_2170_v006 ">
					<name>SLS_2170_v006</name>
					<duration>117</duration>
					<rate>
						<ntsc>FALSE</ntsc>
						<timebase>25</timebase>
					</rate>
					<in>0</in>
					<out>117</out>
					<start>4481</start>
					<end>4598</end>
					<pixelaspectratio>Square</pixelaspectratio>
					<anamorphic>FALSE</anamorphic>
					<alphatype>none</alphatype>
					<masterclipid>SLS_2170_v006 1</masterclipid>
					<logginginfo>
						<scene/>
						<shottake/>
						<lognote/>
						<good>FALSE</good>
					</logginginfo>
					<labels>
						<label2/>
					</labels>
					<comments>
						<mastercomment1/>
						<mastercomment2/>
						<mastercomment3/>
						<mastercomment4/>
					</comments>
					<file id="SLS_2170_v006 2">
						<name>SLS_2170_v006.mov</name>
						<pathurl>file://localhost/Volumes/DeBao_EDIT_01/08_From%20CG/20210121-2/SLS_2170_v006.mov</pathurl>
						<rate>
							<timebase>25</timebase>
						</rate>
						<duration>117</duration>
						<metadata>
							<storage>QuickTime</storage>
							<key>uk.co.thefoundry.Writer</key>
							<size>5</size>
							<type>UTF8</type>
							<value>mov64</value>
						</metadata>
						<metadata>
							<storage>QuickTime</storage>
							<key>uk.co.thefoundry.Application</key>
							<size>4</size>
							<type>UTF8</type>
							<value>Nuke</value>
						</metadata>
						<metadata>
							<storage>QuickTime</storage>
							<key>uk.co.thefoundry.ApplicationVersion</key>
							<size>6</size>
							<type>UTF8</type>
							<value>12.0v2</value>
						</metadata>
						<metadata>
							<storage>QuickTime</storage>
							<key>uk.co.thefoundry.YCbCrMatrix</key>
							<size>7</size>
							<type>UTF8</type>
							<value>Rec 709</value>
						</metadata>
						<metadata>
							<storage>QuickTime</storage>
							<key>uk.co.thefoundry.Colorspace</key>
							<size>4</size>
							<type>UTF8</type>
							<value>sRGB</value>
						</metadata>
						<media>
							<video>
								<duration>117</duration>
								<samplecharacteristics>
									<width>1920</width>
									<height>1080</height>
								</samplecharacteristics>
							</video>
						</media>
					</file>
					<sourcetrack>
						<mediatype>video</mediatype>
					</sourcetrack>
					<fielddominance>none</fielddominance>
					<itemhistory>
						<uuid>388D29EA-2C87-4EA0-AAEC-EFF1DCB17BD2</uuid>
					</itemhistory>
				</clipitem>
				<clipitem id="WDD_0050_v003 ">
					<name>WDD_0050_v003</name>
					<duration>111</duration>
					<rate>
						<ntsc>FALSE</ntsc>
						<timebase>25</timebase>
					</rate>
					<in>0</in>
					<out>111</out>
					<start>4598</start>
					<end>4709</end>
					<pixelaspectratio>Square</pixelaspectratio>
					<anamorphic>FALSE</anamorphic>
					<alphatype>none</alphatype>
					<masterclipid>WDD_0050_v003 1</masterclipid>
					<logginginfo>
						<scene/>
						<shottake/>
						<lognote/>
						<good>FALSE</good>
					</logginginfo>
					<labels>
						<label2/>
					</labels>
					<comments>
						<mastercomment1/>
						<mastercomment2/>
						<mastercomment3/>
						<mastercomment4/>
					</comments>
					<file id="WDD_0050_v003 2">
						<name>WDD_0050_v003.mov</name>
						<pathurl>file://localhost/Volumes/DeBao_EDIT_01/08_From%20CG/20210121-2/WDD_0050_v003.mov</pathurl>
						<rate>
							<timebase>25</timebase>
						</rate>
						<duration>111</duration>
						<metadata>
							<storage>QuickTime</storage>
							<key>uk.co.thefoundry.Writer</key>
							<size>5</size>
							<type>UTF8</type>
							<value>mov64</value>
						</metadata>
						<metadata>
							<storage>QuickTime</storage>
							<key>uk.co.thefoundry.Application</key>
							<size>4</size>
							<type>UTF8</type>
							<value>Nuke</value>
						</metadata>
						<metadata>
							<storage>QuickTime</storage>
							<key>uk.co.thefoundry.ApplicationVersion</key>
							<size>6</size>
							<type>UTF8</type>
							<value>11.1v1</value>
						</metadata>
						<metadata>
							<storage>QuickTime</storage>
							<key>uk.co.thefoundry.YCbCrMatrix</key>
							<size>7</size>
							<type>UTF8</type>
							<value>Rec 709</value>
						</metadata>
						<metadata>
							<storage>QuickTime</storage>
							<key>uk.co.thefoundry.Colorspace</key>
							<size>4</size>
							<type>UTF8</type>
							<value>sRGB</value>
						</metadata>
						<media>
							<video>
								<duration>111</duration>
								<samplecharacteristics>
									<width>1920</width>
									<height>1080</height>
								</samplecharacteristics>
							</video>
						</media>
					</file>
					<sourcetrack>
						<mediatype>video</mediatype>
					</sourcetrack>
					<fielddominance>none</fielddominance>
					<itemhistory>
						<uuid>00F7688E-D01E-4BDA-A079-D859A9B3DE51</uuid>
					</itemhistory>
				</clipitem>
				<enabled>TRUE</enabled>
				<locked>FALSE</locked>
			</track>
			<track>
				<enabled>TRUE</enabled>
				<locked>FALSE</locked>
			</track>
			<track>
				<enabled>TRUE</enabled>
				<locked>FALSE</locked>
			</track>
			<track>
				<enabled>TRUE</enabled>
				<locked>FALSE</locked>
			</track>
			<track>
				<enabled>TRUE</enabled>
				<locked>FALSE</locked>
			</track>
			<track>
				<enabled>TRUE</enabled>
				<locked>FALSE</locked>
			</track>
			<track>
				<enabled>TRUE</enabled>
				<locked>FALSE</locked>
			</track>
		</video>
		<audio>
			<format>
				<samplecharacteristics>
					<depth>24</depth>
					<samplerate>48000</samplerate>
				</samplecharacteristics>
			</format>
			<outputs>
				<group>
					<index>1</index>
					<numchannels>2</numchannels>
					<downmix>0</downmix>
					<channel>
						<index>1</index>
					</channel>
					<channel>
						<index>2</index>
					</channel>
				</group>
			</outputs>
			<in>-1</in>
			<out>-1</out>
			<track>
				<enabled>TRUE</enabled>
				<locked>FALSE</locked>
				<outputchannelindex>1</outputchannelindex>
			</track>
			<track>
				<enabled>TRUE</enabled>
				<locked>FALSE</locked>
				<outputchannelindex>2</outputchannelindex>
			</track>
			<track>
				<enabled>TRUE</enabled>
				<locked>FALSE</locked>
				<outputchannelindex>1</outputchannelindex>
			</track>
			<track>
				<enabled>TRUE</enabled>
				<locked>FALSE</locked>
				<outputchannelindex>2</outputchannelindex>
			</track>
			<track>
				<enabled>TRUE</enabled>
				<locked>FALSE</locked>
				<outputchannelindex>1</outputchannelindex>
			</track>
			<track>
				<enabled>TRUE</enabled>
				<locked>FALSE</locked>
				<outputchannelindex>2</outputchannelindex>
			</track>
			<track>
				<enabled>TRUE</enabled>
				<locked>FALSE</locked>
				<outputchannelindex>1</outputchannelindex>
			</track>
			<track>
				<enabled>TRUE</enabled>
				<locked>FALSE</locked>
				<outputchannelindex>2</outputchannelindex>
			</track>
			<track>
				<enabled>TRUE</enabled>
				<locked>FALSE</locked>
				<outputchannelindex>1</outputchannelindex>
			</track>
			<track>
				<enabled>TRUE</enabled>
				<locked>FALSE</locked>
				<outputchannelindex>2</outputchannelindex>
			</track>
			<track>
				<enabled>TRUE</enabled>
				<locked>FALSE</locked>
				<outputchannelindex>1</outputchannelindex>
			</track>
			<track>
				<enabled>TRUE</enabled>
				<locked>FALSE</locked>
				<outputchannelindex>2</outputchannelindex>
			</track>
			<filter>
				<effect>
					<name>Audio Levels</name>
					<effectid>audiolevels</effectid>
					<effectcategory>audiolevels</effectcategory>
					<effecttype>audiolevels</effecttype>
					<mediatype>audio</mediatype>
					<parameter>
						<name>Level</name>
						<parameterid>level</parameterid>
						<valuemin>0</valuemin>
						<valuemax>3.98109</valuemax>
						<value>1</value>
					</parameter>
				</effect>
			</filter>
		</audio>
	</media>
	<ismasterclip>FALSE</ismasterclip>
</sequence>
</xmeml>


